<?xml version="1.0" encoding="iso-8859-1"?>
<!-- Generator: Adobe Illustrator 19.0.0, SVG Export Plug-In . SVG Version: 6.00 Build 0)  -->
<svg version="1.1" id="Layer_1" xmlns="http://www.w3.org/2000/svg" xmlns:xlink="http://www.w3.org/1999/xlink" x="0px" y="0px"
	 viewBox="0 0 512 512" style="enable-background:new 0 0 512 512;" xml:space="preserve">
<path style="fill:#EFF2FA;" d="M172.761,441.379c-4.495,0-10.774-2.601-13.953-5.78L41.09,317.881
	c-3.179-3.178-5.78-9.458-5.78-13.953V137.451c0-4.495,2.601-10.774,5.78-13.953L158.807,5.78C161.986,2.601,168.265,0,172.761,0
	h166.478c4.495,0,10.774,2.601,13.953,5.78L470.91,123.498c3.179,3.179,5.78,9.458,5.78,13.953v166.478
	c0,4.495-2.601,10.774-5.78,13.953L353.192,435.599c-3.179,3.179-9.458,5.78-13.953,5.78H172.761z"/>
<g>
	<circle style="fill:#D7DEED;" cx="255.999" cy="220.69" r="35.31"/>
	<path style="fill:#D7DEED;" d="M338.892,17.655c0.582,0.126,1.562,0.531,2.062,0.854l117.227,117.228
		c0.322,0.499,0.727,1.479,0.853,2.059v165.784c-0.126,0.58-0.531,1.56-0.853,2.06L340.953,422.869
		c-0.5,0.323-1.48,0.728-2.062,0.854H173.107c-0.582-0.126-1.562-0.531-2.062-0.854L53.818,305.642
		c-0.322-0.5-0.727-1.48-0.853-2.06V137.798c0.126-0.58,0.531-1.56,0.853-2.06L171.046,18.509c0.5-0.323,1.48-0.728,2.062-0.854
		H338.892 M339.239,0H172.76c-4.495,0-10.774,2.601-13.953,5.78L41.09,123.498c-3.179,3.178-5.78,9.457-5.78,13.952v166.478
		c0,4.495,2.601,10.775,5.78,13.953l117.718,117.718c3.179,3.179,9.458,5.78,13.953,5.78h166.478c4.495,0,10.774-2.601,13.953-5.78
		l117.717-117.718c3.179-3.178,5.78-9.457,5.78-13.953V137.45c0-4.495-2.601-10.775-5.78-13.953L353.192,5.78
		C350.013,2.601,343.734,0,339.239,0L339.239,0z"/>
</g>
<circle style="fill:#FFD782;" cx="317.793" cy="97.103" r="26.483"/>
<path style="fill:#FFC36E;" d="M335.448,114.759c-14.626,0-26.483-11.857-26.483-26.483c0-6.713,2.579-12.772,6.696-17.44
	c-13.611,1.103-24.351,12.372-24.351,26.268c0,14.626,11.857,26.483,26.483,26.483c7.913,0,14.934-3.541,19.787-9.043
	C336.865,114.601,336.178,114.759,335.448,114.759z"/>
<circle style="fill:#FFD782;" cx="211.862" cy="79.448" r="26.483"/>
<path style="fill:#FFC36E;" d="M229.517,97.103c-14.626,0-26.483-11.857-26.483-26.483c0-6.713,2.579-12.772,6.696-17.44
	c-13.611,1.103-24.351,12.372-24.351,26.268c0,14.626,11.857,26.483,26.483,26.483c7.913,0,14.934-3.541,19.787-9.043
	C230.934,96.946,230.247,97.103,229.517,97.103z"/>
<circle style="fill:#FFD782;" cx="388.413" cy="185.379" r="26.483"/>
<path style="fill:#FFC36E;" d="M406.068,203.034c-14.626,0-26.483-11.857-26.483-26.483c0-6.713,2.579-12.772,6.696-17.44
	c-13.611,1.103-24.351,12.372-24.351,26.268c0,14.626,11.857,26.483,26.483,26.483c7.913,0,14.934-3.541,19.787-9.043
	C407.485,202.877,406.799,203.034,406.068,203.034z"/>
<circle style="fill:#FFD782;" cx="97.103" cy="264.828" r="26.483"/>
<path style="fill:#FFC36E;" d="M114.758,282.483c-14.626,0-26.483-11.857-26.483-26.483c0-6.713,2.579-12.772,6.696-17.44
	c-13.611,1.103-24.351,12.372-24.351,26.268c0,14.626,11.857,26.483,26.483,26.483c7.913,0,14.934-3.541,19.787-9.043
	C116.175,282.325,115.489,282.483,114.758,282.483z"/>
<circle style="fill:#FFD782;" cx="123.586" cy="326.621" r="26.483"/>
<path style="fill:#FFC36E;" d="M141.241,344.276c-14.626,0-26.483-11.857-26.483-26.483c0-6.713,2.579-12.772,6.696-17.44
	c-13.611,1.103-24.351,12.372-24.351,26.268c0,14.626,11.857,26.483,26.483,26.483c7.913,0,14.934-3.541,19.787-9.043
	C142.658,344.118,141.971,344.276,141.241,344.276z"/>
<circle style="fill:#FFD782;" cx="150.068" cy="220.69" r="26.483"/>
<path style="fill:#FFC36E;" d="M167.724,238.345c-14.626,0-26.483-11.857-26.483-26.483c0-6.713,2.579-12.772,6.696-17.44
	c-13.611,1.103-24.351,12.372-24.351,26.268c0,14.626,11.857,26.483,26.483,26.483c7.913,0,14.934-3.541,19.787-9.043
	C169.14,238.187,168.454,238.345,167.724,238.345z"/>
<circle style="fill:#FFD782;" cx="185.379" cy="150.069" r="26.483"/>
<path style="fill:#FFC36E;" d="M203.034,167.724c-14.626,0-26.483-11.857-26.483-26.483c0-6.713,2.579-12.772,6.696-17.44
	c-13.611,1.103-24.351,12.372-24.351,26.268c0,14.626,11.857,26.483,26.483,26.483c7.913,0,14.934-3.541,19.787-9.043
	C204.451,167.566,203.764,167.724,203.034,167.724z"/>
<circle style="fill:#FFD782;" cx="176.551" cy="300.138" r="26.483"/>
<path style="fill:#FFC36E;" d="M194.206,317.793c-14.626,0-26.483-11.857-26.483-26.483c0-6.713,2.579-12.772,6.696-17.44
	c-13.611,1.103-24.351,12.372-24.351,26.268c0,14.626,11.857,26.483,26.483,26.483c7.913,0,14.934-3.541,19.787-9.043
	C195.623,317.635,194.937,317.793,194.206,317.793z"/>
<circle style="fill:#FFD782;" cx="238.344" cy="326.621" r="26.483"/>
<path style="fill:#FFC36E;" d="M255.999,344.276c-14.626,0-26.483-11.857-26.483-26.483c0-6.713,2.579-12.772,6.696-17.44
	c-13.611,1.103-24.351,12.372-24.351,26.268c0,14.626,11.857,26.483,26.483,26.483c7.913,0,14.934-3.541,19.787-9.043
	C257.416,344.118,256.73,344.276,255.999,344.276z"/>
<circle style="fill:#FFD782;" cx="300.137" cy="361.931" r="26.483"/>
<path style="fill:#FFC36E;" d="M317.793,379.586c-14.626,0-26.483-11.857-26.483-26.483c0-6.713,2.579-12.772,6.696-17.44
	c-13.611,1.103-24.351,12.372-24.351,26.268c0,14.626,11.857,26.483,26.483,26.483c7.913,0,14.934-3.541,19.787-9.043
	C319.209,379.428,318.523,379.586,317.793,379.586z"/>
<circle style="fill:#FFD782;" cx="176.551" cy="370.759" r="26.483"/>
<path style="fill:#FFC36E;" d="M194.206,388.414c-14.626,0-26.483-11.857-26.483-26.483c0-6.713,2.579-12.772,6.696-17.44
	c-13.611,1.103-24.351,12.372-24.351,26.268c0,14.626,11.857,26.483,26.483,26.483c7.913,0,14.934-3.541,19.787-9.043
	C195.623,388.256,194.937,388.414,194.206,388.414z"/>
<circle style="fill:#FFD782;" cx="229.517" cy="388.414" r="26.483"/>
<path style="fill:#FFC36E;" d="M247.172,406.069c-14.626,0-26.483-11.857-26.483-26.483c0-6.713,2.579-12.772,6.696-17.44
	c-13.611,1.103-24.351,12.372-24.351,26.268c0,14.626,11.857,26.483,26.483,26.483c7.913,0,14.934-3.541,19.787-9.043
	C248.589,405.911,247.902,406.069,247.172,406.069z"/>
<circle style="fill:#FFD782;" cx="282.482" cy="397.241" r="26.483"/>
<path style="fill:#FFC36E;" d="M300.137,414.897c-14.626,0-26.483-11.857-26.483-26.483c0-6.713,2.579-12.772,6.696-17.44
	c-13.611,1.103-24.351,12.372-24.351,26.268c0,14.626,11.857,26.483,26.483,26.483c7.913,0,14.934-3.541,19.787-9.043
	C301.554,414.739,300.868,414.897,300.137,414.897z"/>
<circle style="fill:#FFD782;" cx="326.62" cy="388.414" r="26.483"/>
<path style="fill:#FFC36E;" d="M344.275,406.069c-14.626,0-26.483-11.857-26.483-26.483c0-6.713,2.579-12.772,6.696-17.44
	c-13.611,1.103-24.351,12.372-24.351,26.268c0,14.626,11.857,26.483,26.483,26.483c7.913,0,14.934-3.541,19.787-9.043
	C345.692,405.911,345.006,406.069,344.275,406.069z"/>
<circle style="fill:#FFD782;" cx="97.103" cy="176.552" r="26.483"/>
<path style="fill:#FFC36E;" d="M114.758,194.207c-14.626,0-26.483-11.857-26.483-26.483c0-6.713,2.579-12.772,6.696-17.44
	c-13.611,1.103-24.351,12.372-24.351,26.268c0,14.626,11.857,26.483,26.483,26.483c7.913,0,14.934-3.541,19.787-9.043
	C116.175,194.049,115.489,194.207,114.758,194.207z"/>
<path style="fill:#959CB3;" d="M405.14,499.224L263.899,216.742c-0.036-0.073-0.081-0.138-0.118-0.209
	c-0.067-0.127-0.139-0.252-0.213-0.375c-0.073-0.122-0.148-0.243-0.226-0.36c-0.086-0.129-0.175-0.254-0.268-0.378
	c-0.078-0.106-0.158-0.211-0.242-0.312c-0.103-0.126-0.211-0.247-0.321-0.367c-0.083-0.09-0.167-0.181-0.253-0.268
	c-0.12-0.12-0.245-0.236-0.372-0.35c-0.086-0.076-0.171-0.152-0.259-0.225c-0.136-0.113-0.277-0.22-0.422-0.326
	c-0.088-0.064-0.175-0.127-0.266-0.188c-0.151-0.103-0.308-0.2-0.468-0.294c-0.088-0.052-0.175-0.102-0.265-0.15
	c-0.087-0.047-0.17-0.102-0.259-0.147c-0.085-0.042-0.173-0.074-0.259-0.113c-0.084-0.039-0.168-0.074-0.253-0.11
	c-0.184-0.077-0.369-0.15-0.555-0.214c-0.081-0.028-0.161-0.052-0.243-0.077c-0.192-0.061-0.385-0.116-0.579-0.162
	c-0.085-0.02-0.17-0.036-0.256-0.055c-0.19-0.04-0.379-0.076-0.569-0.103c-0.104-0.014-0.209-0.024-0.313-0.035
	c-0.17-0.018-0.34-0.034-0.51-0.042c-0.137-0.007-0.274-0.006-0.41-0.006c-0.137,0-0.274,0-0.41,0.006
	c-0.17,0.008-0.34,0.024-0.51,0.042c-0.105,0.011-0.21,0.021-0.313,0.035c-0.19,0.026-0.38,0.063-0.569,0.103
	c-0.085,0.018-0.171,0.034-0.256,0.055c-0.194,0.046-0.387,0.103-0.579,0.162c-0.081,0.025-0.162,0.05-0.243,0.077
	c-0.186,0.064-0.371,0.137-0.555,0.214c-0.085,0.035-0.169,0.072-0.253,0.11c-0.086,0.04-0.174,0.071-0.259,0.113
	c-0.089,0.045-0.172,0.099-0.259,0.147c-0.089,0.049-0.178,0.098-0.265,0.15c-0.16,0.094-0.316,0.191-0.468,0.294
	c-0.089,0.061-0.178,0.124-0.266,0.188c-0.145,0.105-0.286,0.212-0.422,0.326c-0.088,0.073-0.174,0.149-0.259,0.225
	c-0.127,0.114-0.253,0.23-0.372,0.35c-0.086,0.087-0.17,0.177-0.253,0.268c-0.11,0.12-0.218,0.242-0.321,0.367
	c-0.083,0.102-0.162,0.206-0.242,0.312c-0.093,0.125-0.183,0.25-0.268,0.378c-0.078,0.117-0.153,0.237-0.226,0.36
	c-0.074,0.124-0.145,0.248-0.213,0.375c-0.038,0.071-0.082,0.137-0.118,0.209L106.858,499.224
	c-2.182,4.362-0.414,9.664,3.948,11.844c1.267,0.629,2.612,0.931,3.939,0.931c3.242,0,6.354-1.784,7.905-4.879l133.346-266.693
	l133.346,266.693c1.551,3.095,4.664,4.879,7.905,4.879c1.327,0,2.673-0.301,3.939-0.931
	C405.554,508.888,407.322,503.586,405.14,499.224z"/>
<g>
	<path style="fill:#AFB9D2;" d="M132.413,512H85.631c-4.217,0-7.196-4.132-5.863-8.134l2.092-6.278
		c2.404-7.209,9.151-12.072,16.75-12.072h33.802c4.875,0,8.828,3.953,8.828,8.828v8.828C141.241,508.047,137.288,512,132.413,512z"
		/>
	<path style="fill:#AFB9D2;" d="M379.589,512h46.782c4.217,0,7.196-4.132,5.863-8.134l-2.092-6.278
		c-2.403-7.209-9.15-12.072-16.749-12.072H379.59c-4.875,0-8.828,3.953-8.828,8.828v8.828C370.761,508.047,374.714,512,379.589,512z
		"/>
	<circle style="fill:#AFB9D2;" cx="255.999" cy="220.69" r="17.655"/>
</g>
<g>
</g>
<g>
</g>
<g>
</g>
<g>
</g>
<g>
</g>
<g>
</g>
<g>
</g>
<g>
</g>
<g>
</g>
<g>
</g>
<g>
</g>
<g>
</g>
<g>
</g>
<g>
</g>
<g>
</g>
</svg>
