<?xml version="1.0" standalone="yes"?>

<svg version="1.1" viewBox="0.0 0.0 568.0288713910761 248.49343832020998" fill="none" stroke="none" stroke-linecap="square" stroke-miterlimit="10" xmlns="http://www.w3.org/2000/svg" xmlns:xlink="http://www.w3.org/1999/xlink"><clipPath id="p.0"><path d="m0 0l568.0289 0l0 248.49344l-568.0289 0l0 -248.49344z" clip-rule="nonzero"></path></clipPath><g clip-path="url(#p.0)"><path fill="#000000" fill-opacity="0.0" d="m0 0l568.0289 0l0 248.49344l-568.0289 0z" fill-rule="evenodd"></path><path fill="#000000" fill-opacity="0.0" d="m26.19685 113.968506l49.03937 53.5748" fill-rule="evenodd"></path><path stroke="#000000" stroke-width="3.0" stroke-linejoin="round" stroke-linecap="butt" d="m26.19685 113.968506l49.03937 53.5748" fill-rule="evenodd"></path><path fill="#000000" fill-opacity="0.0" d="m123.32809 99.84777l13.952751 0" fill-rule="evenodd"></path><path stroke="#000000" stroke-width="4.0" stroke-linejoin="round" stroke-linecap="butt" d="m123.32809 99.84777l13.952751 0" fill-rule="evenodd"></path><path fill="#000000" fill-opacity="0.0" d="m56.04462 99.561676l13.952755 0" fill-rule="evenodd"></path><path stroke="#000000" stroke-width="8.0" stroke-linejoin="round" stroke-linecap="butt" d="m56.04462 99.561676l13.952755 0" fill-rule="evenodd"></path><path fill="#cfe2f3" d="m69.997375 79.59318l54.48819 0l0 41.385826l-54.48819 0z" fill-rule="evenodd"></path><path stroke="#000000" stroke-width="1.0" stroke-linejoin="round" stroke-linecap="butt" d="m69.997375 79.59318l54.48819 0l0 41.385826l-54.48819 0z" fill-rule="evenodd"></path><path fill="#000000" d="m80.41925 107.206085l0 -13.359375l1.8125 0l7.015625 10.484375l0 -10.484375l1.6875 0l0 13.359375l-1.8125 0l-7.015625 -10.5l0 10.5l-1.6875 0zm16.722946 -2.15625l0 -3.671875l-3.640625 0l0 -1.515625l3.640625 0l0 -3.640625l1.546875 0l0 3.640625l3.640625 0l0 1.515625l-3.640625 0l0 3.671875l-1.546875 0zm13.1762085 2.15625l-1.640625 0l0 -10.453125q-0.59375 0.5625 -1.5625 1.140625q-0.953125 0.5625 -1.71875 0.84375l0 -1.59375q1.375 -0.640625 2.40625 -1.5625q1.03125 -0.921875 1.453125 -1.78125l1.0625 0l0 13.40625z" fill-rule="nonzero"></path><path fill="#cfe2f3" d="m5.9973755 79.59318l54.48819 0l0 41.385826l-54.48819 0z" fill-rule="evenodd"></path><path stroke="#000000" stroke-width="1.0" stroke-linejoin="round" stroke-linecap="butt" d="m5.9973755 79.59318l54.48819 0l0 41.385826l-54.48819 0z" fill-rule="evenodd"></path><path fill="#000000" d="m26.785858 107.206085l0 -13.359375l1.8125 0l7.015625 10.484375l0 -10.484375l1.6875 0l0 13.359375l-1.8125 0l-7.015625 -10.5l0 10.5l-1.6875 0z" fill-rule="nonzero"></path><path fill="#cfe2f3" d="m137.76115 79.59318l54.48819 0l0 41.385826l-54.48819 0z" fill-rule="evenodd"></path><path stroke="#000000" stroke-width="1.0" stroke-linejoin="round" stroke-linecap="butt" d="m137.76115 79.59318l54.48819 0l0 41.385826l-54.48819 0z" fill-rule="evenodd"></path><path fill="#000000" d="m148.18303 107.206085l0 -13.359375l1.8125 0l7.015625 10.484375l0 -10.484375l1.6875 0l0 13.359375l-1.8125 0l-7.015625 -10.5l0 10.5l-1.6875 0zm16.722946 -2.15625l0 -3.671875l-3.640625 0l0 -1.515625l3.640625 0l0 -3.640625l1.546875 0l0 3.640625l3.640625 0l0 1.515625l-3.640625 0l0 3.671875l-1.546875 0zm15.6137085 0.578125l0 1.578125l-8.828125 0q-0.015625 -0.59375 0.1875 -1.140625q0.34375 -0.90625 1.078125 -1.78125q0.75 -0.875 2.15625 -2.015625q2.171875 -1.78125 2.9375 -2.828125q0.765625 -1.046875 0.765625 -1.96875q0 -0.984375 -0.703125 -1.640625q-0.6875 -0.671875 -1.8125 -0.671875q-1.1875 0 -1.90625 0.71875q-0.703125 0.703125 -0.703125 1.953125l-1.6875 -0.171875q0.171875 -1.890625 1.296875 -2.875q1.140625 -0.984375 3.03125 -0.984375q1.921875 0 3.046875 1.0625q1.125 1.0625 1.125 2.640625q0 0.796875 -0.328125 1.578125q-0.328125 0.78125 -1.09375 1.640625q-0.75 0.84375 -2.53125 2.34375q-1.46875 1.234375 -1.890625 1.6875q-0.421875 0.4375 -0.6875 0.875l6.546875 0z" fill-rule="nonzero"></path><path fill="#cfe2f3" d="m69.997375 140.44882l54.48819 0l0 41.38582l-54.48819 0z" fill-rule="evenodd"></path><path stroke="#000000" stroke-width="1.0" stroke-linejoin="round" stroke-linecap="butt" d="m69.997375 140.44882l54.48819 0l0 41.38582l-54.48819 0z" fill-rule="evenodd"></path><path fill="#000000" d="m80.41925 168.06174l0 -13.359375l1.8125 0l7.015625 10.484375l0 -10.484375l1.6875 0l0 13.359375l-1.8125 0l-7.015625 -10.5l0 10.5l-1.6875 0zm12.644821 -4.015625l0 -1.640625l5.03125 0l0 1.640625l-5.03125 0zm12.572052 4.015625l-1.640625 0l0 -10.453125q-0.59375 0.5625 -1.5625 1.140625q-0.953125 0.5625 -1.71875 0.84375l0 -1.59375q1.375 -0.640625 2.40625 -1.5625q1.03125 -0.921875 1.453125 -1.78125l1.0625 0l0 13.40625zm4.547592 -11.59375l0 -1.890625l1.765625 0l0 1.5q0 1.21875 -0.28125 1.75q-0.390625 0.75 -1.21875 1.109375l-0.40625 -0.640625q0.484375 -0.203125 0.71875 -0.625q0.25 -0.4375 0.28125 -1.203125l-0.859375 0z" fill-rule="nonzero"></path><path fill="#000000" fill-opacity="0.0" d="m67.761154 141.28476l58.960632 40.53543" fill-rule="evenodd"></path><path stroke="#ff0000" stroke-width="4.0" stroke-linejoin="round" stroke-linecap="butt" d="m67.761154 141.28476l58.960632 40.53543" fill-rule="evenodd"></path><path fill="#000000" fill-opacity="0.0" d="m67.761154 181.83464l58.04724 -41.38582" fill-rule="evenodd"></path><path stroke="#ff0000" stroke-width="4.0" stroke-linejoin="round" stroke-linecap="butt" d="m67.761154 181.83464l58.04724 -41.38582" fill-rule="evenodd"></path></g></svg>

