<?xml version="1.0" standalone="yes"?>

<svg version="1.1" viewBox="0.0 0.0 592.4173228346457 275.18110236220474" fill="none" stroke="none" stroke-linecap="square" stroke-miterlimit="10" xmlns="http://www.w3.org/2000/svg" xmlns:xlink="http://www.w3.org/1999/xlink"><clipPath id="p.0"><path d="m0 0l592.4173 0l0 275.1811l-592.4173 0l0 -275.1811z" clip-rule="nonzero"></path></clipPath><g clip-path="url(#p.0)"><path fill="#000000" fill-opacity="0.0" d="m0 0l592.4173 0l0 275.1811l-592.4173 0z" fill-rule="evenodd"></path><path fill="#4a86e8" d="m6.866142 105.47275l0 0c0 -8.480133 6.8745055 -15.354637 15.354637 -15.354637l108.34584 0c4.0723114 0 7.9778137 1.6177139 10.857376 4.4972687c2.879547 2.8795547 4.4972687 6.7850647 4.4972687 10.857368l0 61.416702c0 8.480133 -6.8745117 15.354645 -15.354645 15.354645l-108.34584 0l0 0c-8.480132 0 -15.354637 -6.8745117 -15.354637 -15.354645z" fill-rule="evenodd"></path><path stroke="#000000" stroke-width="1.0" stroke-linejoin="round" stroke-linecap="butt" d="m6.866142 105.47275l0 0c0 -8.480133 6.8745055 -15.354637 15.354637 -15.354637l108.34584 0c4.0723114 0 7.9778137 1.6177139 10.857376 4.4972687c2.879547 2.8795547 4.4972687 6.7850647 4.4972687 10.857368l0 61.416702c0 8.480133 -6.8745117 15.354645 -15.354645 15.354645l-108.34584 0l0 0c-8.480132 0 -15.354637 -6.8745117 -15.354637 -15.354645z" fill-rule="evenodd"></path><path fill="#000000" fill-opacity="0.0" d="m-2.9343832 103.67454l158.26772 0l0 69.196846l-158.26772 0z" fill-rule="evenodd"></path><path fill="#000000" d="m12.349209 130.59454l0 -13.250008l2.6875 0l0 11.000008l6.703125 0l0 2.25l-9.390625 0zm11.239731 0l0 -13.359383l2.6875 0l0 13.359383l-2.6875 0zm11.464554 -4.9062576l0 -2.25l5.8125 0l0 5.3125076q-0.84375 0.828125 -2.453125 1.453125q-1.609375 0.625 -3.25 0.625q-2.09375 0 -3.65625 -0.875q-1.5625 -0.890625 -2.34375 -2.5156326q-0.78125 -1.640625 -0.78125 -3.5625q0 -2.09375 0.875 -3.703125q0.875 -1.625 2.5625 -2.5q1.28125 -0.65625 3.203125 -0.65625q2.484375 0 3.875 1.046875q1.40625 1.03125 1.796875 2.875l-2.671875 0.5q-0.28125 -0.984375 -1.0625 -1.546875q-0.78125 -0.578125 -1.9375 -0.578125q-1.78125 0 -2.828125 1.125q-1.03125 1.125 -1.03125 3.328125q0 2.375 1.046875 3.5625q1.0625 1.1875076 2.78125 1.1875076q0.84375 0 1.6875 -0.328125q0.859375 -0.32813263 1.46875 -0.8125076l0 -1.6875l-3.09375 0zm8.308304 4.9062576l0 -13.359383l2.703125 0l0 5.265625l5.28125 0l0 -5.265625l2.703125 0l0 13.359383l-2.703125 0l0 -5.8437576l-5.28125 0l0 5.8437576l-2.703125 0zm16.472946 0l0 -11.093758l-3.953125 0l0 -2.265625l10.609379 0l0 2.265625l-3.9531288 0l0 11.093758l-2.703125 0zm10.28661 0l-3.1875 -13.359383l2.765625 0l2.015625 9.171875l2.4375 -9.171875l3.203125 0l2.34375 9.328125l2.046875 -9.328125l2.71875 0l-3.25 13.359383l-2.859375 0l-2.65625 -9.984383l-2.65625 9.984383l-2.921875 0zm15.718033 0l0 -13.359383l9.90625 0l0 2.265625l-7.21875 0l0 2.953125l6.71875 0l0 2.25l-6.71875 0l0 3.6406326l7.46875 0l0 2.25l-10.15625 0zm12.365448 0l0 -13.359383l2.6875 0l0 13.359383l-2.6875 0zm11.464554 -4.9062576l0 -2.25l5.8125 0l0 5.3125076q-0.84375 0.828125 -2.453125 1.453125q-1.609375 0.625 -3.25 0.625q-2.09375 0 -3.65625 -0.875q-1.5625 -0.890625 -2.34375 -2.5156326q-0.78125 -1.640625 -0.78125 -3.5625q0 -2.09375 0.875 -3.703125q0.875 -1.625 2.5625 -2.5q1.28125 -0.65625 3.203125 -0.65625q2.484375 0 3.875 1.046875q1.40625 1.03125 1.796875 2.875l-2.671875 0.5q-0.28125 -0.984375 -1.0625 -1.546875q-0.78125 -0.578125 -1.9375 -0.578125q-1.78125 0 -2.828125 1.125q-1.03125 1.125 -1.03125 3.328125q0 2.375 1.046875 3.5625q1.0625 1.1875076 2.78125 1.1875076q0.84375 0 1.6875 -0.328125q0.859375 -0.32813263 1.46875 -0.8125076l0 -1.6875l-3.09375 0zm8.308304 4.9062576l0 -13.359383l2.703125 0l0 5.265625l5.2812576 0l0 -5.265625l2.7031174 0l0 13.359383l-2.7031174 0l0 -5.8437576l-5.2812576 0l0 5.8437576l-2.703125 0zm16.47293 0l0 -11.093758l-3.953125 0l0 -2.265625l10.609375 0l0 2.265625l-3.953125 0l0 11.093758l-2.703125 0z" fill-rule="nonzero"></path><path fill="#000000" d="m40.592915 152.59454l-3.1875 -13.359375l2.765625 0l2.015625 9.171875l2.4375 -9.171875l3.203125 0l2.34375 9.328125l2.046875 -9.328125l2.71875 0l-3.25 13.359375l-2.859375 0l-2.65625 -9.984375l-2.65625 9.984375l-2.921875 0zm27.764912 0l-2.9375 0l-1.171875 -3.03125l-5.328129 0l-1.109375 3.03125l-2.859375 0l5.203125 -13.359375l2.84375 0l5.359379 13.359375zm-4.968754 -5.28125l-1.84375 -4.953125l-1.796875 4.953125l3.640625 0zm6.47295 5.28125l0 -13.25l2.6875 0l0 11.0l6.703125 0l0 2.25l-9.390625 0zm11.395981 0l0 -13.25l2.6875 0l0 11.0l6.703125 0l0 2.25l-9.390625 0zm11.317856 0l0 -13.359375l9.90625 0l0 2.265625l-7.21875 0l0 2.953125l6.71875 0l0 2.25l-6.71875 0l0 3.640625l7.46875 0l0 2.25l-10.15625 0zm15.443573 0l0 -11.09375l-3.953125 0l0 -2.265625l10.609375 0l0 2.265625l-3.953125 0l0 11.09375l-2.703125 0z" fill-rule="nonzero"></path><path fill="#000000" d="m376.29922 15.803419l0 0c0 -7.4364243 6.028412 -13.464836 13.464813 -13.464836l54.676636 0l0 0c3.571106 0 6.995941 1.4186125 9.521088 3.9437592c2.5251465 2.5251465 3.943756 5.9499807 3.943756 9.521077l0 53.857727c0 7.4364243 -6.028412 13.464836 -13.464844 13.464836l-54.676636 0c-7.4364014 0 -13.464813 -6.028412 -13.464813 -13.464836z" fill-rule="evenodd"></path><path stroke="#000000" stroke-width="1.0" stroke-linejoin="round" stroke-linecap="butt" d="m376.29922 15.803419l0 0c0 -7.4364243 6.028412 -13.464836 13.464813 -13.464836l54.676636 0l0 0c3.571106 0 6.995941 1.4186125 9.521088 3.9437592c2.5251465 2.5251465 3.943756 5.9499807 3.943756 9.521077l0 53.857727c0 7.4364243 -6.028412 13.464836 -13.464844 13.464836l-54.676636 0c-7.4364014 0 -13.464813 -6.028412 -13.464813 -13.464836z" fill-rule="evenodd"></path><path fill="#000000" fill-opacity="0.0" d="m382.34647 9.091864l78.92914 0l0 39.527557l-78.92914 0z" fill-rule="evenodd"></path><path fill="#ffffff" d="m392.87772 36.01186l0 -13.359373l9.015625 0l0 1.578125l-7.25 0l0 4.140625l6.265625 0l0 1.578125l-6.265625 0l0 6.062498l-1.765625 0zm20.06784 -13.359373l1.765625 0l0 7.71875q0 2.015623 -0.453125 3.203123q-0.453125 1.1875 -1.640625 1.9375q-1.1875 0.734375 -3.125 0.734375q-1.875 0 -3.078125 -0.640625q-1.1875 -0.65625 -1.703125 -1.875q-0.5 -1.234375 -0.5 -3.359373l0 -7.71875l1.765625 0l0 7.71875q0 1.7343731 0.3125 2.562498q0.328125 0.8125 1.109375 1.265625q0.796875 0.453125 1.9375 0.453125q1.953125 0 2.78125 -0.890625q0.828125 -0.890625 0.828125 -3.390623l0 -7.71875zm4.6292114 13.359373l0 -13.359373l1.78125 0l0 11.781248l6.5625 0l0 1.578125l-8.34375 0zm10.375702 0l0 -13.359373l1.78125 0l0 11.781248l6.5625 0l0 1.578125l-8.34375 0z" fill-rule="nonzero"></path><path fill="#ffffff" d="m392.76834 58.01186l0 -13.359375l1.8125 0l7.015625 10.484375l0 -10.484375l1.6875 0l0 13.359375l-1.8125 0l-7.015625 -10.5l0 10.5l-1.6875 0zm12.957306 -6.5q0 -3.328125 1.78125 -5.203125q1.78125 -1.890625 4.609375 -1.890625q1.84375 0 3.328125 0.890625q1.484375 0.875 2.265625 2.46875q0.78125 1.578125 0.78125 3.578125q0 2.03125 -0.828125 3.640625q-0.8125 1.59375 -2.3125 2.421875q-1.5 0.828125 -3.25 0.828125q-1.875 0 -3.359375 -0.90625q-1.484375 -0.921875 -2.25 -2.5q-0.765625 -1.578125 -0.765625 -3.328125zm1.8125 0.015625q0 2.421875 1.296875 3.8125q1.296875 1.390625 3.265625 1.390625q2.0 0 3.28125 -1.40625q1.28125 -1.40625 1.28125 -3.984375q0 -1.625 -0.546875 -2.84375q-0.546875 -1.21875 -1.609375 -1.875q-1.0625 -0.671875 -2.375 -0.671875q-1.890625 0 -3.25 1.296875q-1.34375 1.28125 -1.34375 4.28125zm13.230194 6.484375l0 -13.359375l4.609375 0q1.546875 0 2.375 0.203125q1.140625 0.25 1.953125 0.953125q1.0625 0.890625 1.578125 2.28125q0.53125 1.390625 0.53125 3.171875q0 1.515625 -0.359375 2.703125q-0.359375 1.171875 -0.921875 1.9375q-0.546875 0.765625 -1.203125 1.21875q-0.65625 0.4375 -1.59375 0.671875q-0.9375 0.21875 -2.140625 0.21875l-4.828125 0zm1.765625 -1.578125l2.859375 0q1.3125 0 2.0625 -0.234375q0.75 -0.25 1.203125 -0.703125q0.625 -0.625 0.96875 -1.6875q0.359375 -1.0625 0.359375 -2.578125q0 -2.09375 -0.6875 -3.21875q-0.6875 -1.125 -1.671875 -1.5q-0.703125 -0.28125 -2.28125 -0.28125l-2.8125 0l0 10.203125zm11.738556 1.578125l0 -13.359375l9.65625 0l0 1.578125l-7.875 0l0 4.09375l7.375 0l0 1.5625l-7.375 0l0 4.546875l8.1875 0l0 1.578125l-9.96875 0z" fill-rule="nonzero"></path><path fill="#000000" d="m489.12073 52.803417l0 0c0 -7.4364204 6.028412 -13.464836 13.464844 -13.464836l54.676636 0l0 0c3.571106 0 6.9959106 1.4186134 9.521057 3.94376c2.5251465 2.5251465 3.9437866 5.9499817 3.9437866 9.521076l0 53.85773c0 7.4364243 -6.0284424 13.464836 -13.464844 13.464836l-54.676636 0c-7.436432 0 -13.464844 -6.028412 -13.464844 -13.464836z" fill-rule="evenodd"></path><path stroke="#000000" stroke-width="1.0" stroke-linejoin="round" stroke-linecap="butt" d="m489.12073 52.803417l0 0c0 -7.4364204 6.028412 -13.464836 13.464844 -13.464836l54.676636 0l0 0c3.571106 0 6.9959106 1.4186134 9.521057 3.94376c2.5251465 2.5251465 3.9437866 5.9499817 3.9437866 9.521076l0 53.85773c0 7.4364243 -6.0284424 13.464836 -13.464844 13.464836l-54.676636 0c-7.436432 0 -13.464844 -6.028412 -13.464844 -13.464836z" fill-rule="evenodd"></path><path fill="#000000" fill-opacity="0.0" d="m495.16797 46.09186l78.92914 0l0 39.52756l-78.92914 0z" fill-rule="evenodd"></path><path fill="#ffffff" d="m505.69922 73.01186l0 -13.359379l9.015625 0l0 1.578125l-7.25 0l0 4.140629l6.265625 0l0 1.578125l-6.265625 0l0 6.0625l-1.765625 0zm20.067871 -13.359379l1.765625 0l0 7.718754q0 2.015625 -0.453125 3.203125q-0.453125 1.1875 -1.640625 1.9375q-1.1875 0.734375 -3.125 0.734375q-1.875 0 -3.078125 -0.640625q-1.1875 -0.65625 -1.703125 -1.875q-0.5 -1.234375 -0.5 -3.359375l0 -7.718754l1.765625 0l0 7.718754q0 1.734375 0.3125 2.5625q0.328125 0.8125 1.109375 1.265625q0.796875 0.453125 1.9375 0.453125q1.953125 0 2.78125 -0.890625q0.828125 -0.890625 0.828125 -3.390625l0 -7.718754zm4.6292114 13.359379l0 -13.359379l1.78125 0l0 11.781254l6.5625 0l0 1.578125l-8.34375 0zm10.375671 0l0 -13.359379l1.78125 0l0 11.781254l6.5625 0l0 1.578125l-8.34375 0z" fill-rule="nonzero"></path><path fill="#ffffff" d="m505.58984 95.01186l0 -13.359375l1.8125 0l7.015625 10.484375l0 -10.484375l1.6875 0l0 13.359375l-1.8125 0l-7.015625 -10.5l0 10.5l-1.6875 0zm12.957336 -6.5q0 -3.328125 1.78125 -5.203125q1.78125 -1.890625 4.609375 -1.890625q1.84375 0 3.328125 0.890625q1.484375 0.875 2.265625 2.46875q0.78125 1.578125 0.78125 3.578125q0 2.03125 -0.828125 3.640625q-0.8125 1.59375 -2.3125 2.421875q-1.5 0.828125 -3.25 0.828125q-1.875 0 -3.359375 -0.90625q-1.484375 -0.921875 -2.25 -2.5q-0.765625 -1.578125 -0.765625 -3.328125zm1.8125 0.015625q0 2.421875 1.296875 3.8125q1.296875 1.390625 3.265625 1.390625q2.0 0 3.28125 -1.40625q1.28125 -1.40625 1.28125 -3.984375q0 -1.625 -0.546875 -2.84375q-0.546875 -1.21875 -1.609375 -1.875q-1.0625 -0.671875 -2.375 -0.671875q-1.890625 0 -3.25 1.296875q-1.34375 1.28125 -1.34375 4.28125zm13.230164 6.484375l0 -13.359375l4.609375 0q1.546875 0 2.375 0.203125q1.140625 0.25 1.953125 0.953125q1.0625 0.890625 1.578125 2.28125q0.53125 1.390625 0.53125 3.171875q0 1.515625 -0.359375 2.703125q-0.359375 1.171875 -0.921875 1.9375q-0.546875 0.765625 -1.203125 1.21875q-0.65625 0.4375 -1.59375 0.671875q-0.9375 0.21875 -2.140625 0.21875l-4.828125 0zm1.765625 -1.578125l2.859375 0q1.3125 0 2.0625 -0.234375q0.75 -0.25 1.203125 -0.703125q0.625 -0.625 0.96875 -1.6875q0.359375 -1.0625 0.359375 -2.578125q0 -2.09375 -0.6875 -3.21875q-0.6875 -1.125 -1.671875 -1.5q-0.703125 -0.28125 -2.28125 -0.28125l-2.8125 0l0 10.203125zm11.738586 1.578125l0 -13.359375l9.65625 0l0 1.578125l-7.875 0l0 4.09375l7.375 0l0 1.5625l-7.375 0l0 4.546875l8.1875 0l0 1.578125l-9.96875 0z" fill-rule="nonzero"></path><path fill="#000000" d="m497.937 168.59344l0 0c0 -7.4364166 6.028412 -13.4648285 13.464844 -13.4648285l54.676636 0l0 0c3.571106 0 6.9959106 1.4186096 9.521057 3.943756c2.5251465 2.5251465 3.9437866 5.9499817 3.9437866 9.521072l0 53.857727c0 7.436432 -6.0284424 13.464844 -13.464844 13.464844l-54.676636 0c-7.436432 0 -13.464844 -6.028412 -13.464844 -13.464844z" fill-rule="evenodd"></path><path stroke="#000000" stroke-width="1.0" stroke-linejoin="round" stroke-linecap="butt" d="m497.937 168.59344l0 0c0 -7.4364166 6.028412 -13.4648285 13.464844 -13.4648285l54.676636 0l0 0c3.571106 0 6.9959106 1.4186096 9.521057 3.943756c2.5251465 2.5251465 3.9437866 5.9499817 3.9437866 9.521072l0 53.857727c0 7.436432 -6.0284424 13.464844 -13.464844 13.464844l-54.676636 0c-7.436432 0 -13.464844 -6.028412 -13.464844 -13.464844z" fill-rule="evenodd"></path><path fill="#000000" fill-opacity="0.0" d="m503.98425 161.8819l78.92914 0l0 39.527557l-78.92914 0z" fill-rule="evenodd"></path><path fill="#ffffff" d="m514.5155 188.8019l0 -13.359375l9.015625 0l0 1.578125l-7.25 0l0 4.140625l6.265625 0l0 1.578125l-6.265625 0l0 6.0625l-1.765625 0zm20.067871 -13.359375l1.765625 0l0 7.71875q0 2.015625 -0.453125 3.203125q-0.453125 1.1875 -1.640625 1.9375q-1.1875 0.734375 -3.125 0.734375q-1.875 0 -3.078125 -0.640625q-1.1875 -0.65625 -1.703125 -1.875q-0.5 -1.234375 -0.5 -3.359375l0 -7.71875l1.765625 0l0 7.71875q0 1.734375 0.3125 2.5625q0.328125 0.8125 1.109375 1.265625q0.796875 0.453125 1.9375 0.453125q1.953125 0 2.78125 -0.890625q0.828125 -0.890625 0.828125 -3.390625l0 -7.71875zm4.6291504 13.359375l0 -13.359375l1.78125 0l0 11.78125l6.5625 0l0 1.578125l-8.34375 0zm10.375732 0l0 -13.359375l1.78125 0l0 11.78125l6.5625 0l0 1.578125l-8.34375 0z" fill-rule="nonzero"></path><path fill="#ffffff" d="m514.4061 210.8019l0 -13.359375l1.8125 0l7.015625 10.484375l0 -10.484375l1.6875 0l0 13.359375l-1.8125 0l-7.015625 -10.5l0 10.5l-1.6875 0zm12.957336 -6.5q0 -3.328125 1.78125 -5.203125q1.78125 -1.890625 4.609375 -1.890625q1.84375 0 3.328125 0.890625q1.484375 0.875 2.265625 2.46875q0.78125 1.578125 0.78125 3.578125q0 2.03125 -0.828125 3.640625q-0.8125 1.59375 -2.3125 2.421875q-1.5 0.828125 -3.25 0.828125q-1.875 0 -3.359375 -0.90625q-1.484375 -0.921875 -2.25 -2.5q-0.765625 -1.578125 -0.765625 -3.328125zm1.8125 0.015625q0 2.421875 1.296875 3.8125q1.296875 1.390625 3.265625 1.390625q2.0 0 3.28125 -1.40625q1.28125 -1.40625 1.28125 -3.984375q0 -1.625 -0.546875 -2.84375q-0.546875 -1.21875 -1.609375 -1.875q-1.0625 -0.671875 -2.375 -0.671875q-1.890625 0 -3.25 1.296875q-1.34375 1.28125 -1.34375 4.28125zm13.230164 6.484375l0 -13.359375l4.609375 0q1.546875 0 2.375 0.203125q1.140625 0.25 1.953125 0.953125q1.0625 0.890625 1.578125 2.28125q0.53125 1.390625 0.53125 3.171875q0 1.515625 -0.359375 2.703125q-0.359375 1.171875 -0.921875 1.9375q-0.546875 0.765625 -1.203125 1.21875q-0.65625 0.4375 -1.59375 0.671875q-0.9375 0.21875 -2.140625 0.21875l-4.828125 0zm1.765625 -1.578125l2.859375 0q1.3125 0 2.0625 -0.234375q0.75 -0.25 1.203125 -0.703125q0.625 -0.625 0.96875 -1.6875q0.359375 -1.0625 0.359375 -2.578125q0 -2.09375 -0.6875 -3.21875q-0.6875 -1.125 -1.671875 -1.5q-0.703125 -0.28125 -2.28125 -0.28125l-2.8125 0l0 10.203125zm11.738586 1.578125l0 -13.359375l9.65625 0l0 1.578125l-7.875 0l0 4.09375l7.375 0l0 1.5625l-7.375 0l0 4.546875l8.1875 0l0 1.578125l-9.96875 0z" fill-rule="nonzero"></path><path fill="#000000" d="m290.14172 113.54883l0 0c0 -7.4364243 6.028412 -13.464836 13.464844 -13.464836l54.676636 0l0 0c3.5710754 0 6.9959106 1.4186096 9.521057 3.943756c2.5251465 2.5251465 3.943756 5.9499817 3.943756 9.52108l0 53.857727c0 7.4364166 -6.028412 13.4648285 -13.464813 13.4648285l-54.676636 0c-7.436432 0 -13.464844 -6.028412 -13.464844 -13.4648285z" fill-rule="evenodd"></path><path stroke="#000000" stroke-width="1.0" stroke-linejoin="round" stroke-linecap="butt" d="m290.14172 113.54883l0 0c0 -7.4364243 6.028412 -13.464836 13.464844 -13.464836l54.676636 0l0 0c3.5710754 0 6.9959106 1.4186096 9.521057 3.943756c2.5251465 2.5251465 3.943756 5.9499817 3.943756 9.52108l0 53.857727c0 7.4364166 -6.028412 13.4648285 -13.464813 13.4648285l-54.676636 0c-7.436432 0 -13.464844 -6.028412 -13.464844 -13.4648285z" fill-rule="evenodd"></path><path fill="#000000" fill-opacity="0.0" d="m296.18896 106.83727l78.92914 0l0 39.52755l-78.92914 0z" fill-rule="evenodd"></path><path fill="#ffffff" d="m306.7202 133.75726l0 -13.359367l9.015625 0l0 1.578125l-7.25 0l0 4.140625l6.265625 0l0 1.578125l-6.265625 0l0 6.0624924l-1.765625 0zm20.067871 -13.359367l1.765625 0l0 7.7187424q0 2.015625 -0.453125 3.203125q-0.453125 1.1875 -1.640625 1.9375q-1.1875 0.734375 -3.125 0.734375q-1.875 0 -3.078125 -0.640625q-1.1875 -0.65625 -1.703125 -1.875q-0.5 -1.234375 -0.5 -3.359375l0 -7.7187424l1.765625 0l0 7.7187424q0 1.734375 0.3125 2.5625q0.328125 0.8125 1.109375 1.265625q0.796875 0.453125 1.9375 0.453125q1.953125 0 2.78125 -0.890625q0.828125 -0.890625 0.828125 -3.390625l0 -7.7187424zm4.629181 13.359367l0 -13.359367l1.78125 0l0 11.781242l6.5625 0l0 1.578125l-8.34375 0zm10.375732 0l0 -13.359367l1.78125 0l0 11.781242l6.5625 0l0 1.578125l-8.34375 0z" fill-rule="nonzero"></path><path fill="#ffffff" d="m306.61084 155.75726l0 -13.359375l1.8125 0l7.015625 10.484375l0 -10.484375l1.6875 0l0 13.359375l-1.8125 0l-7.015625 -10.5l0 10.5l-1.6875 0zm12.957336 -6.5q0 -3.328125 1.78125 -5.203125q1.78125 -1.890625 4.609375 -1.890625q1.84375 0 3.328125 0.890625q1.484375 0.875 2.265625 2.46875q0.78125 1.578125 0.78125 3.578125q0 2.03125 -0.828125 3.640625q-0.8125 1.59375 -2.3125 2.421875q-1.5 0.828125 -3.25 0.828125q-1.875 0 -3.359375 -0.90625q-1.484375 -0.921875 -2.25 -2.5q-0.765625 -1.578125 -0.765625 -3.328125zm1.8125 0.015625q0 2.421875 1.296875 3.8125q1.296875 1.390625 3.265625 1.390625q2.0 0 3.28125 -1.40625q1.28125 -1.40625 1.28125 -3.984375q0 -1.625 -0.546875 -2.84375q-0.546875 -1.21875 -1.609375 -1.875q-1.0625 -0.671875 -2.375 -0.671875q-1.890625 0 -3.25 1.296875q-1.34375 1.28125 -1.34375 4.28125zm13.230164 6.484375l0 -13.359375l4.609375 0q1.546875 0 2.375 0.203125q1.140625 0.25 1.953125 0.953125q1.0625 0.890625 1.578125 2.28125q0.53125 1.390625 0.53125 3.171875q0 1.515625 -0.359375 2.703125q-0.359375 1.171875 -0.921875 1.9375q-0.546875 0.765625 -1.203125 1.21875q-0.65625 0.4375 -1.59375 0.671875q-0.9375 0.21875 -2.140625 0.21875l-4.828125 0zm1.765625 -1.578125l2.859375 0q1.3125 0 2.0625 -0.234375q0.75 -0.25 1.203125 -0.703125q0.625 -0.625 0.96875 -1.6875q0.359375 -1.0625 0.359375 -2.578125q0 -2.09375 -0.6875 -3.21875q-0.6875 -1.125 -1.671875 -1.5q-0.703125 -0.28125 -2.28125 -0.28125l-2.8125 0l0 10.203125zm11.738586 1.578125l0 -13.359375l9.65625 0l0 1.578125l-7.875 0l0 4.09375l7.375 0l0 1.5625l-7.375 0l0 4.546875l8.1875 0l0 1.578125l-9.96875 0z" fill-rule="nonzero"></path><path fill="#000000" d="m387.1706 200.16562l0 0c0 -7.4364166 6.028412 -13.4648285 13.464844 -13.4648285l54.676636 0l0 0c3.5710754 0 6.9959106 1.4186096 9.521057 3.943756c2.5251465 2.5251465 3.9437866 5.9499817 3.9437866 9.521072l0 53.857727c0 7.436432 -6.028412 13.464844 -13.464844 13.464844l-54.676636 0c-7.436432 0 -13.464844 -6.028412 -13.464844 -13.464844z" fill-rule="evenodd"></path><path stroke="#000000" stroke-width="1.0" stroke-linejoin="round" stroke-linecap="butt" d="m387.1706 200.16562l0 0c0 -7.4364166 6.028412 -13.4648285 13.464844 -13.4648285l54.676636 0l0 0c3.5710754 0 6.9959106 1.4186096 9.521057 3.943756c2.5251465 2.5251465 3.9437866 5.9499817 3.9437866 9.521072l0 53.857727c0 7.436432 -6.028412 13.464844 -13.464844 13.464844l-54.676636 0c-7.436432 0 -13.464844 -6.028412 -13.464844 -13.464844z" fill-rule="evenodd"></path><path fill="#000000" fill-opacity="0.0" d="m393.21783 193.45407l78.92914 0l0 39.527557l-78.92914 0z" fill-rule="evenodd"></path><path fill="#ffffff" d="m403.74908 220.37407l0 -13.359375l9.015625 0l0 1.578125l-7.25 0l0 4.140625l6.265625 0l0 1.578125l-6.265625 0l0 6.0625l-1.765625 0zm20.067871 -13.359375l1.765625 0l0 7.71875q0 2.015625 -0.453125 3.203125q-0.453125 1.1875 -1.640625 1.9375q-1.1875 0.734375 -3.125 0.734375q-1.875 0 -3.078125 -0.640625q-1.1875 -0.65625 -1.703125 -1.875q-0.5 -1.234375 -0.5 -3.359375l0 -7.71875l1.765625 0l0 7.71875q0 1.734375 0.3125 2.5625q0.328125 0.8125 1.109375 1.265625q0.796875 0.453125 1.9375 0.453125q1.953125 0 2.78125 -0.890625q0.828125 -0.890625 0.828125 -3.390625l0 -7.71875zm4.629181 13.359375l0 -13.359375l1.78125 0l0 11.78125l6.5625 0l0 1.578125l-8.34375 0zm10.375732 0l0 -13.359375l1.78125 0l0 11.78125l6.5625 0l0 1.578125l-8.34375 0z" fill-rule="nonzero"></path><path fill="#ffffff" d="m403.6397 242.37407l0 -13.359375l1.8125 0l7.015625 10.484375l0 -10.484375l1.6875 0l0 13.359375l-1.8125 0l-7.015625 -10.5l0 10.5l-1.6875 0zm12.957336 -6.5q0 -3.328125 1.78125 -5.203125q1.78125 -1.890625 4.609375 -1.890625q1.84375 0 3.328125 0.890625q1.484375 0.875 2.265625 2.46875q0.78125 1.578125 0.78125 3.578125q0 2.03125 -0.828125 3.640625q-0.8125 1.59375 -2.3125 2.421875q-1.5 0.828125 -3.25 0.828125q-1.875 0 -3.359375 -0.90625q-1.484375 -0.921875 -2.25 -2.5q-0.765625 -1.578125 -0.765625 -3.328125zm1.8125 0.015625q0 2.421875 1.296875 3.8125q1.296875 1.390625 3.265625 1.390625q2.0 0 3.28125 -1.40625q1.28125 -1.40625 1.28125 -3.984375q0 -1.625 -0.546875 -2.84375q-0.546875 -1.21875 -1.609375 -1.875q-1.0625 -0.671875 -2.375 -0.671875q-1.890625 0 -3.25 1.296875q-1.34375 1.28125 -1.34375 4.28125zm13.230164 6.484375l0 -13.359375l4.609375 0q1.546875 0 2.375 0.203125q1.140625 0.25 1.953125 0.953125q1.0625 0.890625 1.578125 2.28125q0.53125 1.390625 0.53125 3.171875q0 1.515625 -0.359375 2.703125q-0.359375 1.171875 -0.921875 1.9375q-0.546875 0.765625 -1.203125 1.21875q-0.65625 0.4375 -1.59375 0.671875q-0.9375 0.21875 -2.140625 0.21875l-4.828125 0zm1.765625 -1.578125l2.859375 0q1.3125 0 2.0625 -0.234375q0.75 -0.25 1.203125 -0.703125q0.625 -0.625 0.96875 -1.6875q0.359375 -1.0625 0.359375 -2.578125q0 -2.09375 -0.6875 -3.21875q-0.6875 -1.125 -1.671875 -1.5q-0.703125 -0.28125 -2.28125 -0.28125l-2.8125 0l0 10.203125zm11.738586 1.578125l0 -13.359375l9.65625 0l0 1.578125l-7.875 0l0 4.09375l7.375 0l0 1.5625l-7.375 0l0 4.546875l8.1875 0l0 1.578125l-9.96875 0z" fill-rule="nonzero"></path><path fill="#000000" fill-opacity="0.0" d="m332.1916 89.191605l35.3071 -47.653545" fill-rule="evenodd"></path><path stroke="#000000" stroke-width="3.0" stroke-linejoin="round" stroke-linecap="butt" d="m338.31223 80.930695l23.065857 -31.131733" fill-rule="evenodd"></path><path fill="#000000" stroke="#000000" stroke-width="3.0" stroke-linecap="butt" d="m338.3122 80.930695l-0.70233154 -4.719223l-2.807373 9.456253l8.228943 -5.439354z" fill-rule="evenodd"></path><path fill="#000000" stroke="#000000" stroke-width="3.0" stroke-linecap="butt" d="m361.37808 49.79896l0.70233154 4.719227l2.8074036 -9.456253l-8.228973 5.439354z" fill-rule="evenodd"></path><path fill="#000000" fill-opacity="0.0" d="m339.8399 189.22047l38.236206 43.55905" fill-rule="evenodd"></path><path stroke="#000000" stroke-width="3.0" stroke-linejoin="round" stroke-linecap="butt" d="m346.6224 196.94717l24.671173 28.105652" fill-rule="evenodd"></path><path fill="#000000" stroke="#000000" stroke-width="3.0" stroke-linecap="butt" d="m346.6224 196.94717l4.761139 0.3098297l-8.650421 -4.7405243l3.5794373 9.191818z" fill-rule="evenodd"></path><path fill="#000000" stroke="#000000" stroke-width="3.0" stroke-linecap="butt" d="m371.2936 225.05283l-4.761139 -0.3098297l8.650421 4.7405243l-3.5794678 -9.191818z" fill-rule="evenodd"></path><path fill="#000000" fill-opacity="0.0" d="m423.03937 89.191605l68.59842 74.74016" fill-rule="evenodd"></path><path stroke="#000000" stroke-width="3.0" stroke-linejoin="round" stroke-linecap="butt" d="m429.99142 96.7661l54.694305 59.59117" fill-rule="evenodd"></path><path fill="#000000" stroke="#000000" stroke-width="3.0" stroke-linecap="butt" d="m429.99142 96.7661l4.7668457 0.20424652l-8.753326 -4.5476685l3.782257 9.110252z" fill-rule="evenodd"></path><path fill="#000000" stroke="#000000" stroke-width="3.0" stroke-linecap="butt" d="m484.68573 156.35725l-4.7668457 -0.20423889l8.753357 4.5476685l-3.782257 -9.11026z" fill-rule="evenodd"></path><path fill="#000000" fill-opacity="0.0" d="m475.17322 256.8714l41.19684 -13.511826" fill-rule="evenodd"></path><path stroke="#000000" stroke-width="3.0" stroke-linejoin="round" stroke-linecap="butt" d="m484.94247 253.66727l21.658356 -7.1035614" fill-rule="evenodd"></path><path fill="#000000" stroke="#000000" stroke-width="3.0" stroke-linecap="butt" d="m484.94244 253.66727l2.1543274 -4.2571564l-7.756256 6.0944824l9.8591 0.31698608z" fill-rule="evenodd"></path><path fill="#000000" stroke="#000000" stroke-width="3.0" stroke-linecap="butt" d="m506.60086 246.5637l-2.1543274 4.2571564l7.7562866 -6.0944824l-9.859131 -0.31698608z" fill-rule="evenodd"></path><path fill="#000000" fill-opacity="0.0" d="m382.2047 139.79527l109.44882 35.874023" fill-rule="evenodd"></path><path stroke="#000000" stroke-width="3.0" stroke-linejoin="round" stroke-linecap="butt" d="m391.97458 142.99754l89.90912 29.469482" fill-rule="evenodd"></path><path fill="#000000" stroke="#000000" stroke-width="3.0" stroke-linecap="butt" d="m391.97458 142.99753l4.256714 -2.1551208l-9.859009 0.31886292l7.757416 6.0930023z" fill-rule="evenodd"></path><path fill="#000000" stroke="#000000" stroke-width="3.0" stroke-linecap="butt" d="m481.8837 172.46703l-4.2567444 2.155136l9.859039 -0.31886292l-7.757416 -6.0930023z" fill-rule="evenodd"></path><path fill="#000000" fill-opacity="0.0" d="m543.4488 161.8819l-13.51178 -41.763786" fill-rule="evenodd"></path><path stroke="#000000" stroke-width="3.0" stroke-linejoin="round" stroke-linecap="butt" d="m540.28406 152.09984l-7.182251 -22.199677" fill-rule="evenodd"></path><path fill="#000000" stroke="#000000" stroke-width="3.0" stroke-linecap="butt" d="m540.28406 152.09984l-4.248474 -2.1714172l6.0632324 7.780716l0.35662842 -9.857742z" fill-rule="evenodd"></path><path fill="#000000" stroke="#000000" stroke-width="3.0" stroke-linecap="butt" d="m533.1018 129.90016l4.248413 2.1714172l-6.0632324 -7.780716l-0.35662842 9.857742z" fill-rule="evenodd"></path><path fill="#000000" fill-opacity="0.0" d="m461.2756 28.855642l27.842499 50.866142" fill-rule="evenodd"></path><path stroke="#000000" stroke-width="3.0" stroke-linejoin="round" stroke-linecap="butt" d="m466.2121 37.87425l17.969482 32.82893" fill-rule="evenodd"></path><path fill="#000000" stroke="#000000" stroke-width="3.0" stroke-linecap="butt" d="m466.2121 37.87425l4.579315 1.3395271l-7.410034 -6.5110397l1.4911804 9.75082z" fill-rule="evenodd"></path><path fill="#000000" stroke="#000000" stroke-width="3.0" stroke-linecap="butt" d="m484.1816 70.70318l-4.579315 -1.3395233l7.410034 6.5110397l-1.4911804 -9.750824z" fill-rule="evenodd"></path><path fill="#000000" fill-opacity="0.0" d="m427.97375 186.70079l57.66928 -85.039375" fill-rule="evenodd"></path><path stroke="#000000" stroke-width="3.0" stroke-linejoin="round" stroke-linecap="butt" d="m433.74423 178.19162l46.128357 -68.021034" fill-rule="evenodd"></path><path fill="#000000" stroke="#000000" stroke-width="3.0" stroke-linecap="butt" d="m433.74423 178.19162l-0.89868164 -4.6858063l-2.4102783 9.565201l7.994751 -5.778076z" fill-rule="evenodd"></path><path fill="#000000" stroke="#000000" stroke-width="3.0" stroke-linecap="butt" d="m479.87256 110.170586l0.89871216 4.6857986l2.4102478 -9.565186l-7.994751 5.778076z" fill-rule="evenodd"></path><path fill="#000000" fill-opacity="0.0" d="m190.4147 67.073494l55.779526 0l0 165.92126l-55.779526 0z" fill-rule="evenodd"></path><path fill="#ffffff" d="m186.42258 59.779526l0 0c0 -5.9490166 4.822632 -10.771652 10.771652 -10.771652l43.08661 0l0 0c2.8568268 0 5.596634 1.1348686 7.6167145 3.1549454c2.0200806 2.0200768 3.1549377 4.7598877 3.1549377 7.616707l0 155.62206c0 5.9490204 -4.822632 10.771652 -10.771652 10.771652l-43.08661 0c-5.9490204 0 -10.771652 -4.822632 -10.771652 -10.771652z" fill-rule="evenodd"></path><path stroke="#000000" stroke-width="1.0" stroke-linejoin="round" stroke-linecap="butt" d="m186.42258 59.779526l0 0c0 -5.9490166 4.822632 -10.771652 10.771652 -10.771652l43.08661 0l0 0c2.8568268 0 5.596634 1.1348686 7.6167145 3.1549454c2.0200806 2.0200768 3.1549377 4.7598877 3.1549377 7.616707l0 155.62206c0 5.9490204 -4.822632 10.771652 -10.771652 10.771652l-43.08661 0c-5.9490204 0 -10.771652 -4.822632 -10.771652 -10.771652z" fill-rule="evenodd"></path><path fill="#000000" fill-opacity="0.0" d="m196.0315 164.52493l0 -64.62992l40.18898 0l0 64.62992z" fill-rule="evenodd"></path><path fill="#000000" d="m228.0715 138.29056l0 3.765625l-3.90625 1.5l0 6.875l3.90625 1.40625l0 3.6875l-17.1875 -6.6875l0 -3.671875l17.1875 -6.875zm-6.796875 6.375l-6.375 2.375l6.375 2.3125l0 -4.6875zm6.796875 -8.222656l-17.1875 0l0 -5.5625q0 -3.171875 0.265625 -4.125q0.390625 -1.484375 1.6875 -2.46875q1.28125 -1.0 3.34375 -1.0q1.578125 0 2.65625 0.578125q1.078125 0.5625 1.703125 1.453125q0.609375 0.890625 0.796875 1.796875q0.25 1.25 0.25 3.59375l0 2.265625l6.484375 0l0 3.46875zm-14.28125 -3.46875l4.875 0l0 -1.890625q0 -2.0625 -0.265625 -2.75q-0.265625 -0.6875 -0.84375 -1.078125q-0.578125 -0.390625 -1.328125 -0.390625q-0.9375 0 -1.546875 0.546875q-0.609375 0.546875 -0.765625 1.390625q-0.125 0.625 -0.125 2.5l0 1.671875zm14.28125 -12.4296875l-17.1875 0l0 -3.46875l17.1875 0l0 3.46875z" fill-rule="nonzero"></path><path fill="#000000" fill-opacity="0.0" d="m147.33595 138.28346l39.086624 -0.69291687" fill-rule="evenodd"></path><path stroke="#000000" stroke-width="2.0" stroke-linejoin="round" stroke-linecap="butt" d="m154.18906 138.16197l25.380417 -0.44992065" fill-rule="evenodd"></path><path fill="#000000" stroke="#000000" stroke-width="2.0" stroke-linecap="butt" d="m154.18906 138.16197l2.2089386 -2.288681l-6.138687 2.3583527l6.2184296 2.1392822z" fill-rule="evenodd"></path><path fill="#000000" stroke="#000000" stroke-width="2.0" stroke-linecap="butt" d="m179.56947 137.71204l-2.2089386 2.288681l6.138687 -2.3583374l-6.2184296 -2.1392822z" fill-rule="evenodd"></path><path fill="#000000" fill-opacity="0.0" d="m251.05249 137.59055l38.299225 0.34646606" fill-rule="evenodd"></path><path stroke="#000000" stroke-width="2.0" stroke-linejoin="round" stroke-linecap="butt" d="m257.9064 137.65254l24.5914 0.22247314" fill-rule="evenodd"></path><path fill="#000000" stroke="#000000" stroke-width="2.0" stroke-linecap="butt" d="m257.90637 137.65256l2.2694397 -2.2287292l-6.1996307 2.1931763l6.1589203 2.3049622z" fill-rule="evenodd"></path><path fill="#000000" stroke="#000000" stroke-width="2.0" stroke-linecap="butt" d="m282.4978 137.875l-2.2694092 2.2287445l6.1996155 -2.1931915l-6.1589355 -2.3049622z" fill-rule="evenodd"></path></g></svg>

