<svg version="1.1" viewBox="0.0 0.0 960.0 720.0" fill="none" stroke="none" stroke-linecap="square" stroke-miterlimit="10" xmlns:xlink="http://www.w3.org/1999/xlink" xmlns="http://www.w3.org/2000/svg"><clipPath id="p.0"><path d="m0 0l960.0 0l0 720.0l-960.0 0l0 -720.0z" clip-rule="nonzero"/></clipPath><g clip-path="url(#p.0)"><path fill="#000000" fill-opacity="0.0" d="m0 0l960.0 0l0 720.0l-960.0 0z" fill-rule="evenodd"/><path fill="#ffab40" d="m405.16534 270.0l0 0c0 -41.330032 33.50461 -74.83464 74.834656 -74.83464l0 0c19.847382 0 38.881897 7.8843384 52.916077 21.918549c14.034241 14.034225 21.91858 33.06871 21.91858 52.916092l0 0c0 41.330048 -33.50464 74.834656 -74.834656 74.834656l0 0c-41.330048 0 -74.834656 -33.50461 -74.834656 -74.834656z" fill-rule="evenodd"/><path stroke="#666666" stroke-width="4.0" stroke-linejoin="round" stroke-linecap="butt" d="m405.16534 270.0l0 0c0 -41.330032 33.50461 -74.83464 74.834656 -74.83464l0 0c19.847382 0 38.881897 7.8843384 52.916077 21.918549c14.034241 14.034225 21.91858 33.06871 21.91858 52.916092l0 0c0 41.330048 -33.50464 74.834656 -74.834656 74.834656l0 0c-41.330048 0 -74.834656 -33.50461 -74.834656 -74.834656z" fill-rule="evenodd"/><path fill="#000000" fill-opacity="0.0" d="m403.53806 368.80316l149.66928 0l0 55.748016l-149.66928 0z" fill-rule="evenodd"/><path fill="#000000" d="m415.9274 408.39716l0 -22.90625l7.890625 0q2.671875 0 4.078125 0.328125q1.96875 0.453125 3.359375 1.640625q1.8125 1.53125 2.703125 3.921875q0.90625 2.375 0.90625 5.4375q0 2.609375 -0.609375 4.625q-0.609375 2.015625 -1.5625 3.34375q-0.953125 1.3125 -2.09375 2.078125q-1.125 0.75 -2.734375 1.140625q-1.59375 0.390625 -3.671875 0.390625l-8.265625 0zm3.03125 -2.703125l4.890625 0q2.265625 0 3.546875 -0.421875q1.296875 -0.421875 2.0625 -1.1875q1.078125 -1.078125 1.671875 -2.890625q0.609375 -1.828125 0.609375 -4.421875q0 -3.59375 -1.1875 -5.515625q-1.171875 -1.9375 -2.859375 -2.59375q-1.21875 -0.46875 -3.921875 -0.46875l-4.8125 0l0 17.5zm17.5625 2.703125l8.796875 -22.90625l3.265625 0l9.375 22.90625l-3.453125 0l-2.671875 -6.9375l-9.578125 0l-2.515625 6.9375l-3.21875 0zm6.609375 -9.40625l7.765625 0l-2.390625 -6.34375q-1.09375 -2.890625 -1.625 -4.75q-0.4375 2.203125 -1.234375 4.375l-2.515625 6.71875zm23.078125 9.40625l0 -20.203125l-7.546875 0l0 -2.703125l18.15625 0l0 2.703125l-7.578125 0l0 20.203125l-3.03125 0zm11.203125 0l8.796875 -22.90625l3.265625 0l9.375 22.90625l-3.453125 0l-2.671875 -6.9375l-9.578125 0l-2.515625 6.9375l-3.21875 0zm6.609375 -9.40625l7.765625 0l-2.390625 -6.34375q-1.09375 -2.890625 -1.625 -4.75q-0.4375 2.203125 -1.234375 4.375l-2.515625 6.71875zm25.28125 9.796875l1.359375 -6.65625l-2.640625 0l0 -2.328125l3.109375 0l1.1562195 -5.671875l-4.2655945 0l0 -2.328125l4.7343445 0l1.359375 -6.703125l2.34375 0l-1.359375 6.703125l4.921875 0l1.359375 -6.703125l2.359375 0l-1.359375 6.703125l2.703125 0l0 2.328125l-3.171875 0l-1.171875 5.671875l4.34375 0l0 2.328125l-4.8125 0l-1.359375 6.65625l-2.34375 0l1.34375 -6.65625l-4.90625 0l-1.3593445 6.65625l-2.34375 0zm4.1718445 -8.984375l4.90625 0l1.171875 -5.671875l-4.921875 0l-1.15625 5.671875zm23.937561 8.59375l-2.8125 0l0 -17.921875q-1.015625 0.96875 -2.671875 1.9375q-1.640686 0.96875 -2.953186 1.453125l0 -2.71875q2.359375 -1.109375 4.125061 -2.6875q1.765625 -1.578125 2.5 -3.0625l1.8125 0l0 23.0z" fill-rule="nonzero"/><path fill="#fce5cd" d="m434.703 249.57983l65.77167 0l0 56.858276l-65.77167 0z" fill-rule="evenodd"/><path fill="#c9b7a3" d="m500.47467 249.57983l18.952759 -18.952759l0 56.858276l-18.952759 18.952759z" fill-rule="evenodd"/><path fill="#fcead7" d="m434.703 249.57983l18.952759 -18.952759l65.77167 0l-18.952759 18.952759z" fill-rule="evenodd"/><path fill="#000000" fill-opacity="0.0" d="m434.703 249.57983l18.952759 -18.952759l65.77167 0l0 56.858276l-18.952759 18.952759l-65.77167 0zm0 0l65.77167 0l18.952759 -18.952759m-18.952759 18.952759l0 56.858276" fill-rule="evenodd"/><path stroke="#607d8b" stroke-width="3.0" stroke-linejoin="round" stroke-linecap="butt" d="m434.703 249.57983l18.952759 -18.952759l65.77167 0l0 56.858276l-18.952759 18.952759l-65.77167 0zm0 0l65.77167 0l18.952759 -18.952759m-18.952759 18.952759l0 56.858276" fill-rule="evenodd"/></g></svg>