<svg version="1.1" viewBox="0.0 0.0 960.0 720.0" fill="none" stroke="none" stroke-linecap="square" stroke-miterlimit="10" xmlns:xlink="http://www.w3.org/1999/xlink" xmlns="http://www.w3.org/2000/svg"><clipPath id="p.0"><path d="m0 0l960.0 0l0 720.0l-960.0 0l0 -720.0z" clip-rule="nonzero"/></clipPath><g clip-path="url(#p.0)"><path fill="#000000" fill-opacity="0.0" d="m0 0l960.0 0l0 720.0l-960.0 0z" fill-rule="evenodd"/><path fill="#ffab40" d="m336.81006 413.01337l0 0c0 -24.135254 19.565521 -43.700775 43.700806 -43.700775l0 0c11.590149 0 22.705627 4.604187 30.901123 12.799652c8.195465 8.195496 12.799652 19.310974 12.799652 30.901123l0 0c0 24.135284 -19.565521 43.700806 -43.700775 43.700806l0 0c-24.135284 0 -43.700806 -19.565521 -43.700806 -43.700806z" fill-rule="evenodd"/><path stroke="#666666" stroke-width="4.0" stroke-linejoin="round" stroke-linecap="butt" d="m336.81006 413.01337l0 0c0 -24.135254 19.565521 -43.700775 43.700806 -43.700775l0 0c11.590149 0 22.705627 4.604187 30.901123 12.799652c8.195465 8.195496 12.799652 19.310974 12.799652 30.901123l0 0c0 24.135284 -19.565521 43.700806 -43.700775 43.700806l0 0c-24.135284 0 -43.700806 -19.565521 -43.700806 -43.700806z" fill-rule="evenodd"/><path fill="#000000" fill-opacity="0.0" d="m335.85974 470.71436l87.40158 0l0 32.566925l-87.40158 0z" fill-rule="evenodd"/><path fill="#000000" d="m348.3379 492.85782l0 -11.453125l3.953125 0q1.328125 0 2.03125 0.15625q0.984375 0.234375 1.6875 0.828125q0.90625 0.765625 1.34375 1.953125q0.453125 1.1875 0.453125 2.71875q0 1.3125 -0.3125 2.328125q-0.296875 1.0 -0.78125 1.65625q-0.46875 0.65625 -1.03125 1.046875q-0.5625 0.375 -1.375 0.578125q-0.796875 0.1875 -1.828125 0.1875l-4.140625 0zm1.515625 -1.359375l2.453125 0q1.125 0 1.765625 -0.203125q0.65625 -0.21875 1.03125 -0.59375q0.546875 -0.546875 0.84375 -1.453125q0.296875 -0.90625 0.296875 -2.203125q0 -1.796875 -0.59375 -2.765625q-0.578125 -0.96875 -1.421875 -1.296875q-0.609375 -0.234375 -1.96875 -0.234375l-2.40625 0l0 8.75zm8.7734375 1.359375l4.40625 -11.453125l1.640625 0l4.6875 11.453125l-1.734375 0l-1.328125 -3.46875l-4.796875 0l-1.25 3.46875l-1.625 0zm3.3125 -4.703125l3.890625 0l-1.203125 -3.171875q-0.546875 -1.453125 -0.8125 -2.375q-0.21875 1.09375 -0.609375 2.1875l-1.265625 3.359375zm11.546875 4.703125l0 -10.109375l-3.78125 0l0 -1.34375l9.078125 0l0 1.34375l-3.78125 0l0 10.109375l-1.515625 0zm5.5859375 0l4.40625 -11.453125l1.640625 0l4.6875 11.453125l-1.734375 0l-1.328125 -3.46875l-4.796875 0l-1.25 3.46875l-1.625 0zm3.3125 -4.703125l3.890625 0l-1.203125 -3.171875q-0.546875 -1.453125 -0.8125 -2.375q-0.21875 1.09375 -0.609375 2.1875l-1.265625 3.359375zm12.6484375 4.90625l0.671875 -3.34375l-1.3125 0l0 -1.15625l1.546875 0l0.578125 -2.84375l-2.125 0l0 -1.15625l2.359375 0l0.6875 -3.359375l1.171875 0l-0.6875 3.359375l2.46875 0l0.671875 -3.359375l1.1875 0l-0.6875 3.359375l1.359375 0l0 1.15625l-1.59375 0l-0.578125 2.84375l2.171875 0l0 1.15625l-2.40625 0l-0.6875 3.34375l-1.171875 0l0.671875 -3.34375l-2.453125 0l-0.671875 3.34375l-1.171875 0zm2.078125 -4.5l2.453125 0l0.59375 -2.84375l-2.46875 0l-0.578125 2.84375zm11.9765625 4.296875l-1.40625 0l0 -8.96875q-0.515625 0.484375 -1.34375 0.96875q-0.8125 0.484375 -1.46875 0.734375l0 -1.359375q1.171875 -0.5625 2.046875 -1.34375q0.890625 -0.796875 1.265625 -1.53125l0.90625 0l0 11.5z" fill-rule="nonzero"/><path fill="#4285f4" d="m308.4357 289.04462l142.2362 0l0 36.0l-142.2362 0z" fill-rule="evenodd"/><path stroke="#666666" stroke-width="4.0" stroke-linejoin="round" stroke-linecap="butt" d="m308.4357 289.04462l142.2362 0l0 36.0l-142.2362 0z" fill-rule="evenodd"/><path fill="#ffffff" d="m347.4874 312.90463l0 -11.453125l1.515625 0l0 4.703125l5.953125 0l0 -4.703125l1.515625 0l0 11.453125l-1.515625 0l0 -5.40625l-5.953125 0l0 5.40625l-1.515625 0zm10.2421875 0l4.40625 -11.453125l1.640625 0l4.6875 11.453125l-1.734375 0l-1.328125 -3.46875l-4.796875 0l-1.25 3.46875l-1.625 0zm3.3125 -4.703125l3.890625 0l-1.203125 -3.171875q-0.546875 -1.453125 -0.8125 -2.375q-0.21875 1.09375 -0.609375 2.1875l-1.265625 3.359375zm8.109375 1.015625l1.4375 -0.125q0.09375 0.859375 0.46875 1.421875q0.375 0.546875 1.15625 0.890625q0.78125 0.328125 1.75 0.328125q0.875 0 1.53125 -0.25q0.671875 -0.265625 0.984375 -0.703125q0.328125 -0.453125 0.328125 -0.984375q0 -0.546875 -0.3125 -0.9375q-0.3125 -0.40625 -1.03125 -0.6875q-0.453125 -0.171875 -2.03125 -0.546875q-1.578125 -0.390625 -2.21875 -0.71875q-0.8125 -0.4375 -1.21875 -1.0625q-0.40625 -0.640625 -0.40625 -1.4375q0 -0.859375 0.484375 -1.609375q0.5 -0.765625 1.4375 -1.15625q0.953125 -0.390625 2.109375 -0.390625q1.28125 0 2.25 0.421875q0.96875 0.40625 1.484375 1.203125q0.53125 0.796875 0.578125 1.796875l-1.453125 0.109375q-0.125 -1.078125 -0.796875 -1.625q-0.671875 -0.5625 -2.0 -0.5625q-1.375 0 -2.0 0.5q-0.625 0.5 -0.625 1.21875q0 0.609375 0.4375 1.015625q0.4375 0.390625 2.28125 0.8125q1.859375 0.421875 2.546875 0.734375q1.0 0.453125 1.46875 1.171875q0.484375 0.703125 0.484375 1.625q0 0.90625 -0.53125 1.71875q-0.515625 0.8125 -1.5 1.265625q-0.984375 0.453125 -2.203125 0.453125q-1.5625 0 -2.609375 -0.453125q-1.046875 -0.46875 -1.65625 -1.375q-0.59375 -0.90625 -0.625 -2.0625zm11.234375 3.6875l0 -11.453125l1.515625 0l0 4.703125l5.953125 0l0 -4.703125l1.515625 0l0 11.453125l-1.515625 0l0 -5.40625l-5.953125 0l0 5.40625l-1.515625 0zm15.53125 0.203125l0.671875 -3.34375l-1.3125 0l0 -1.15625l1.546875 0l0.578125 -2.84375l-2.125 0l0 -1.15625l2.359375 0l0.6875 -3.359375l1.171875 0l-0.6875 3.359375l2.46875 0l0.671875 -3.359375l1.1875 0l-0.6875 3.359375l1.359375 0l0 1.15625l-1.59375 0l-0.578125 2.84375l2.171875 0l0 1.15625l-2.40625 0l-0.6875 3.34375l-1.171875 0l0.671875 -3.34375l-2.453125 0l-0.671875 3.34375l-1.171875 0zm2.078125 -4.5l2.453125 0l0.59375 -2.84375l-2.46875 0l-0.578125 2.84375zm11.9765625 4.296875l-1.40625 0l0 -8.96875q-0.515625 0.484375 -1.34375 0.96875q-0.8125 0.484375 -1.46875 0.734375l0 -1.359375q1.171875 -0.5625 2.046875 -1.34375q0.890625 -0.796875 1.265625 -1.53125l0.90625 0l0 11.5z" fill-rule="nonzero"/><path fill="#000000" fill-opacity="0.0" d="m379.5538 325.04462l0.94488525 44.283478" fill-rule="evenodd"/><path stroke="#666666" stroke-width="4.0" stroke-linejoin="round" stroke-linecap="butt" d="m379.5538 325.04462l0.94488525 44.283478" fill-rule="evenodd"/><path fill="#ffab40" d="m537.70245 413.01337l0 0c0 -24.135254 19.56549 -43.700775 43.700806 -43.700775l0 0c11.590149 0 22.705627 4.604187 30.901123 12.799652c8.195496 8.195496 12.799622 19.310974 12.799622 30.901123l0 0c0 24.135284 -19.56549 43.700806 -43.700745 43.700806l0 0c-24.135315 0 -43.700806 -19.565521 -43.700806 -43.700806z" fill-rule="evenodd"/><path stroke="#666666" stroke-width="4.0" stroke-linejoin="round" stroke-linecap="butt" d="m537.70245 413.01337l0 0c0 -24.135254 19.56549 -43.700775 43.700806 -43.700775l0 0c11.590149 0 22.705627 4.604187 30.901123 12.799652c8.195496 8.195496 12.799622 19.310974 12.799622 30.901123l0 0c0 24.135284 -19.56549 43.700806 -43.700745 43.700806l0 0c-24.135315 0 -43.700806 -19.565521 -43.700806 -43.700806z" fill-rule="evenodd"/><path fill="#000000" fill-opacity="0.0" d="m536.75214 470.71436l87.40161 0l0 32.566925l-87.40161 0z" fill-rule="evenodd"/><path fill="#000000" d="m549.2303 492.85782l0 -11.453125l3.953125 0q1.328125 0 2.03125 0.15625q0.984375 0.234375 1.6875 0.828125q0.90625 0.765625 1.34375 1.953125q0.453125 1.1875 0.453125 2.71875q0 1.3125 -0.3125 2.328125q-0.296875 1.0 -0.78125 1.65625q-0.46875 0.65625 -1.03125 1.046875q-0.5625 0.375 -1.375 0.578125q-0.796875 0.1875 -1.828125 0.1875l-4.140625 0zm1.515625 -1.359375l2.453125 0q1.125 0 1.765625 -0.203125q0.65625 -0.21875 1.03125 -0.59375q0.546875 -0.546875 0.84375 -1.453125q0.296875 -0.90625 0.296875 -2.203125q0 -1.796875 -0.59375 -2.765625q-0.578125 -0.96875 -1.421875 -1.296875q-0.609375 -0.234375 -1.96875 -0.234375l-2.40625 0l0 8.75zm8.7734375 1.359375l4.40625 -11.453125l1.640625 0l4.6875 11.453125l-1.734375 0l-1.328125 -3.46875l-4.796875 0l-1.25 3.46875l-1.625 0zm3.3125 -4.703125l3.890625 0l-1.203125 -3.171875q-0.546875 -1.453125 -0.8125 -2.375q-0.21875 1.09375 -0.609375 2.1875l-1.265625 3.359375zm11.546875 4.703125l0 -10.109375l-3.78125 0l0 -1.34375l9.078125 0l0 1.34375l-3.78125 0l0 10.109375l-1.515625 0zm5.5859375 0l4.40625 -11.453125l1.640625 0l4.6875 11.453125l-1.734375 0l-1.328125 -3.46875l-4.796875 0l-1.25 3.46875l-1.625 0zm3.3125 -4.703125l3.890625 0l-1.203125 -3.171875q-0.546875 -1.453125 -0.8125 -2.375q-0.21875 1.09375 -0.609375 2.1875l-1.265625 3.359375zm12.6484375 4.90625l0.671875 -3.34375l-1.3125 0l0 -1.15625l1.546875 0l0.578125 -2.84375l-2.125 0l0 -1.15625l2.359375 0l0.6875 -3.359375l1.171875 0l-0.6875 3.359375l2.46875 0l0.671875 -3.359375l1.1875 0l-0.6875 3.359375l1.359375 0l0 1.15625l-1.59375 0l-0.578125 2.84375l2.171875 0l0 1.15625l-2.40625 0l-0.6875 3.34375l-1.171875 0l0.671875 -3.34375l-2.453125 0l-0.671875 3.34375l-1.171875 0zm2.078125 -4.5l2.453125 0l0.59375 -2.84375l-2.46875 0l-0.578125 2.84375zm14.0703125 2.9375l0 1.359375l-7.578125 0q-0.015625 -0.515625 0.171875 -0.984375q0.28125 -0.765625 0.921875 -1.515625q0.640625 -0.75 1.84375 -1.734375q1.859375 -1.53125 2.515625 -2.421875q0.65625 -0.90625 0.65625 -1.703125q0 -0.828125 -0.59375 -1.40625q-0.59375 -0.578125 -1.5625 -0.578125q-1.015625 0 -1.625 0.609375q-0.609375 0.609375 -0.609375 1.6875l-1.453125 -0.140625q0.15625 -1.625 1.125 -2.46875q0.96875 -0.84375 2.59375 -0.84375q1.65625 0 2.609375 0.921875q0.96875 0.90625 0.96875 2.25q0 0.6875 -0.28125 1.359375q-0.28125 0.65625 -0.9375 1.390625q-0.65625 0.734375 -2.171875 2.015625q-1.265625 1.0625 -1.625 1.453125q-0.359375 0.375 -0.59375 0.75l5.625 0z" fill-rule="nonzero"/><path fill="#4285f4" d="m509.3281 289.04462l142.23624 0l0 36.0l-142.23624 0z" fill-rule="evenodd"/><path stroke="#666666" stroke-width="4.0" stroke-linejoin="round" stroke-linecap="butt" d="m509.3281 289.04462l142.23624 0l0 36.0l-142.23624 0z" fill-rule="evenodd"/><path fill="#ffffff" d="m548.37976 312.90463l0 -11.453125l1.515625 0l0 4.703125l5.953125 0l0 -4.703125l1.515625 0l0 11.453125l-1.515625 0l0 -5.40625l-5.953125 0l0 5.40625l-1.515625 0zm10.2421875 0l4.40625 -11.453125l1.640625 0l4.6875 11.453125l-1.734375 0l-1.328125 -3.46875l-4.796875 0l-1.25 3.46875l-1.625 0zm3.3125 -4.703125l3.890625 0l-1.203125 -3.171875q-0.546875 -1.453125 -0.8125 -2.375q-0.21875 1.09375 -0.609375 2.1875l-1.265625 3.359375zm8.109375 1.015625l1.4375 -0.125q0.09375 0.859375 0.46875 1.421875q0.375 0.546875 1.15625 0.890625q0.78125 0.328125 1.75 0.328125q0.875 0 1.53125 -0.25q0.671875 -0.265625 0.984375 -0.703125q0.328125 -0.453125 0.328125 -0.984375q0 -0.546875 -0.3125 -0.9375q-0.3125 -0.40625 -1.03125 -0.6875q-0.453125 -0.171875 -2.03125 -0.546875q-1.578125 -0.390625 -2.21875 -0.71875q-0.8125 -0.4375 -1.21875 -1.0625q-0.40625 -0.640625 -0.40625 -1.4375q0 -0.859375 0.484375 -1.609375q0.5 -0.765625 1.4375 -1.15625q0.953125 -0.390625 2.109375 -0.390625q1.28125 0 2.25 0.421875q0.96875 0.40625 1.484375 1.203125q0.53125 0.796875 0.578125 1.796875l-1.453125 0.109375q-0.125 -1.078125 -0.796875 -1.625q-0.671875 -0.5625 -2.0 -0.5625q-1.375 0 -2.0 0.5q-0.625 0.5 -0.625 1.21875q0 0.609375 0.4375 1.015625q0.4375 0.390625 2.28125 0.8125q1.859375 0.421875 2.546875 0.734375q1.0 0.453125 1.46875 1.171875q0.484375 0.703125 0.484375 1.625q0 0.90625 -0.53125 1.71875q-0.515625 0.8125 -1.5 1.265625q-0.984375 0.453125 -2.203125 0.453125q-1.5625 0 -2.609375 -0.453125q-1.046875 -0.46875 -1.65625 -1.375q-0.59375 -0.90625 -0.625 -2.0625zm11.234375 3.6875l0 -11.453125l1.515625 0l0 4.703125l5.953125 0l0 -4.703125l1.515625 0l0 11.453125l-1.515625 0l0 -5.40625l-5.953125 0l0 5.40625l-1.515625 0zm15.53125 0.203125l0.671875 -3.34375l-1.3125 0l0 -1.15625l1.546875 0l0.578125 -2.84375l-2.125 0l0 -1.15625l2.359375 0l0.6875 -3.359375l1.171875 0l-0.6875 3.359375l2.46875 0l0.671875 -3.359375l1.1875 0l-0.6875 3.359375l1.359375 0l0 1.15625l-1.59375 0l-0.578125 2.84375l2.171875 0l0 1.15625l-2.40625 0l-0.6875 3.34375l-1.171875 0l0.671875 -3.34375l-2.453125 0l-0.671875 3.34375l-1.171875 0zm2.078125 -4.5l2.453125 0l0.59375 -2.84375l-2.46875 0l-0.578125 2.84375zm14.0703125 2.9375l0 1.359375l-7.578125 0q-0.015625 -0.515625 0.171875 -0.984375q0.28125 -0.765625 0.921875 -1.515625q0.640625 -0.75 1.84375 -1.734375q1.859375 -1.53125 2.515625 -2.421875q0.65625 -0.90625 0.65625 -1.703125q0 -0.828125 -0.59375 -1.40625q-0.59375 -0.578125 -1.5625 -0.578125q-1.015625 0 -1.625 0.609375q-0.609375 0.609375 -0.609375 1.6875l-1.453125 -0.140625q0.15625 -1.625 1.125 -2.46875q0.96875 -0.84375 2.59375 -0.84375q1.65625 0 2.609375 0.921875q0.96875 0.90625 0.96875 2.25q0 0.6875 -0.28125 1.359375q-0.28125 0.65625 -0.9375 1.390625q-0.65625 0.734375 -2.171875 2.015625q-1.265625 1.0625 -1.625 1.453125q-0.359375 0.375 -0.59375 0.75l5.625 0z" fill-rule="nonzero"/><path fill="#000000" fill-opacity="0.0" d="m580.44617 325.04462l0.94488525 44.283478" fill-rule="evenodd"/><path stroke="#666666" stroke-width="4.0" stroke-linejoin="round" stroke-linecap="butt" d="m580.44617 325.04462l0.94488525 44.283478" fill-rule="evenodd"/><path fill="#d84315" d="m389.18372 127.40682l181.63782 0l0 36.000008l-181.63782 0z" fill-rule="evenodd"/><path stroke="#666666" stroke-width="4.0" stroke-linejoin="round" stroke-linecap="butt" d="m389.18372 127.40682l181.63782 0l0 36.000008l-181.63782 0z" fill-rule="evenodd"/><path fill="#ffffff" d="m418.13934 151.26683l0 -11.453125l5.078125 0q1.53125 0 2.328125 0.3125q0.796875 0.296875 1.265625 1.078125q0.484375 0.78125 0.484375 1.734375q0 1.21875 -0.796875 2.0625q-0.78125 0.828125 -2.4375 1.046875q0.609375 0.296875 0.921875 0.578125q0.65625 0.609375 1.25 1.515625l2.0 3.125l-1.90625 0l-1.515625 -2.390625q-0.671875 -1.03125 -1.109375 -1.578125q-0.421875 -0.546875 -0.765625 -0.765625q-0.328125 -0.21875 -0.6875 -0.296875q-0.25 -0.0625 -0.84375 -0.0625l-1.75 0l0 5.09375l-1.515625 0zm1.515625 -6.40625l3.25 0q1.046875 0 1.625 -0.203125q0.59375 -0.21875 0.890625 -0.6875q0.3125 -0.484375 0.3125 -1.03125q0 -0.8125 -0.59375 -1.328125q-0.59375 -0.53125 -1.859375 -0.53125l-3.625 0l0 3.78125zm9.5546875 0.828125q0 -2.859375 1.53125 -4.46875q1.53125 -1.609375 3.953125 -1.609375q1.578125 0 2.84375 0.765625q1.28125 0.75 1.953125 2.109375q0.671875 1.34375 0.671875 3.0625q0 1.75 -0.703125 3.125q-0.703125 1.375 -2.0 2.09375q-1.28125 0.703125 -2.78125 0.703125q-1.609375 0 -2.890625 -0.78125q-1.265625 -0.796875 -1.921875 -2.140625q-0.65625 -1.359375 -0.65625 -2.859375zm1.5625 0.015625q0 2.078125 1.109375 3.265625q1.109375 1.1875 2.796875 1.1875q1.703125 0 2.8125 -1.203125q1.109375 -1.203125 1.109375 -3.40625q0 -1.40625 -0.484375 -2.4375q-0.46875 -1.046875 -1.375 -1.625q-0.90625 -0.578125 -2.046875 -0.578125q-1.609375 0 -2.765625 1.109375q-1.15625 1.109375 -1.15625 3.6875zm10.8828125 -0.015625q0 -2.859375 1.53125 -4.46875q1.53125 -1.609375 3.953125 -1.609375q1.578125 0 2.84375 0.765625q1.28125 0.75 1.953125 2.109375q0.671875 1.34375 0.671875 3.0625q0 1.75 -0.703125 3.125q-0.703125 1.375 -2.0 2.09375q-1.28125 0.703125 -2.78125 0.703125q-1.609375 0 -2.890625 -0.78125q-1.265625 -0.796875 -1.921875 -2.140625q-0.65625 -1.359375 -0.65625 -2.859375zm1.5625 0.015625q0 2.078125 1.109375 3.265625q1.109375 1.1875 2.796875 1.1875q1.703125 0 2.8125 -1.203125q1.109375 -1.203125 1.109375 -3.40625q0 -1.40625 -0.484375 -2.4375q-0.46875 -1.046875 -1.375 -1.625q-0.90625 -0.578125 -2.046875 -0.578125q-1.609375 0 -2.765625 1.109375q-1.15625 1.109375 -1.15625 3.6875zm14.2578125 5.5625l0 -10.109375l-3.78125 0l0 -1.34375l9.078125 0l0 1.34375l-3.78125 0l0 10.109375l-1.515625 0zm11.34375 0l0 -11.453125l1.515625 0l0 4.703125l5.953125 0l0 -4.703125l1.515625 0l0 11.453125l-1.515625 0l0 -5.40625l-5.953125 0l0 5.40625l-1.515625 0zm10.2421875 0l4.40625 -11.453125l1.640625 0l4.6875 11.453125l-1.734375 0l-1.328125 -3.46875l-4.796875 0l-1.25 3.46875l-1.625 0zm3.3125 -4.703125l3.890625 0l-1.203125 -3.171875q-0.546875 -1.453125 -0.8125 -2.375q-0.21875 1.09375 -0.609375 2.1875l-1.265625 3.359375zm8.109375 1.015625l1.4375 -0.125q0.09375 0.859375 0.46875 1.421875q0.375 0.546875 1.15625 0.890625q0.78125 0.328125 1.75 0.328125q0.875 0 1.53125 -0.25q0.671875 -0.265625 0.984375 -0.703125q0.328125 -0.453125 0.328125 -0.984375q0 -0.546875 -0.3125 -0.9375q-0.3125 -0.40625 -1.03125 -0.6875q-0.453125 -0.171875 -2.03125 -0.546875q-1.578125 -0.390625 -2.21875 -0.71875q-0.8125 -0.4375 -1.21875 -1.0625q-0.40625 -0.640625 -0.40625 -1.4375q0 -0.859375 0.484375 -1.609375q0.5 -0.765625 1.4375 -1.15625q0.953125 -0.390625 2.109375 -0.390625q1.28125 0 2.25 0.421875q0.96875 0.40625 1.484375 1.203125q0.53125 0.796875 0.578125 1.796875l-1.453125 0.109375q-0.125 -1.078125 -0.796875 -1.625q-0.671875 -0.5625 -2.0 -0.5625q-1.375 0 -2.0 0.5q-0.625 0.5 -0.625 1.21875q0 0.609375 0.4375 1.015625q0.4375 0.390625 2.28125 0.8125q1.859375 0.421875 2.546875 0.734375q1.0 0.453125 1.46875 1.171875q0.484375 0.703125 0.484375 1.625q0 0.90625 -0.53125 1.71875q-0.515625 0.8125 -1.5 1.265625q-0.984375 0.453125 -2.203125 0.453125q-1.5625 0 -2.609375 -0.453125q-1.046875 -0.46875 -1.65625 -1.375q-0.59375 -0.90625 -0.625 -2.0625zm11.234375 3.6875l0 -11.453125l1.515625 0l0 4.703125l5.953125 0l0 -4.703125l1.515625 0l0 11.453125l-1.515625 0l0 -5.40625l-5.953125 0l0 5.40625l-1.515625 0zm15.53125 0.203125l0.671875 -3.34375l-1.3125 0l0 -1.15625l1.546875 0l0.578125 -2.84375l-2.125 0l0 -1.15625l2.359375 0l0.6875 -3.359375l1.171875 0l-0.6875 3.359375l2.46875 0l0.671875 -3.359375l1.1875 0l-0.6875 3.359375l1.359375 0l0 1.15625l-1.59375 0l-0.578125 2.84375l2.171875 0l0 1.15625l-2.40625 0l-0.6875 3.34375l-1.171875 0l0.671875 -3.34375l-2.453125 0l-0.671875 3.34375l-1.171875 0zm2.078125 -4.5l2.453125 0l0.59375 -2.84375l-2.46875 0l-0.578125 2.84375zm11.9765625 4.296875l-1.40625 0l0 -8.96875q-0.515625 0.484375 -1.34375 0.96875q-0.8125 0.484375 -1.46875 0.734375l0 -1.359375q1.171875 -0.5625 2.046875 -1.34375q0.890625 -0.796875 1.265625 -1.53125l0.90625 0l0 11.5zm10.9921875 -1.359375l0 1.359375l-7.578125 0q-0.015625 -0.515625 0.171875 -0.984375q0.28125 -0.765625 0.921875 -1.515625q0.640625 -0.75 1.84375 -1.734375q1.859375 -1.53125 2.515625 -2.421875q0.65625 -0.90625 0.65625 -1.703125q0 -0.828125 -0.59375 -1.40625q-0.59375 -0.578125 -1.5625 -0.578125q-1.015625 0 -1.625 0.609375q-0.609375 0.609375 -0.609375 1.6875l-1.453125 -0.140625q0.15625 -1.625 1.125 -2.46875q0.96875 -0.84375 2.59375 -0.84375q1.65625 0 2.609375 0.921875q0.96875 0.90625 0.96875 2.25q0 0.6875 -0.28125 1.359375q-0.28125 0.65625 -0.9375 1.390625q-0.65625 0.734375 -2.171875 2.015625q-1.265625 1.0625 -1.625 1.453125q-0.359375 0.375 -0.59375 0.75l5.625 0z" fill-rule="nonzero"/><path fill="#000000" fill-opacity="0.0" d="m480.00262 163.40683l-100.44095 125.63779" fill-rule="evenodd"/><path stroke="#666666" stroke-width="4.0" stroke-linejoin="round" stroke-linecap="butt" d="m480.00262 163.40683l-100.44095 125.63779" fill-rule="evenodd"/><path fill="#000000" fill-opacity="0.0" d="m480.00262 163.40683l100.44092 125.63779" fill-rule="evenodd"/><path stroke="#666666" stroke-width="4.0" stroke-linejoin="round" stroke-linecap="butt" d="m480.00262 163.40683l100.44092 125.63779" fill-rule="evenodd"/><path fill="#000000" fill-opacity="0.0" d="m564.9449 116.41164c4.402466 -4.891075 15.16449 -22.987755 26.414673 -29.346458c11.250244 -6.3587036 28.369202 -9.294838 41.08661 -8.805771c12.717407 0.48905945 29.348206 9.783463 35.217896 11.740158" fill-rule="evenodd"/><path stroke="#666666" stroke-width="4.0" stroke-linejoin="round" stroke-linecap="butt" d="m579.6058 97.4101l0.08630371 -0.09927368c0.1585083 -0.18083954 0.31756592 -0.3610077 0.4772339 -0.54039764c0.319458 -0.35878754 0.64123535 -0.71448517 0.96539307 -1.0663223c0.6482544 -0.7036972 1.305542 -1.3919754 1.970459 -2.0587769c2.65979 -2.667183 5.4418945 -4.9904785 8.254395 -6.5801544c11.250244 -6.3587036 28.369263 -9.294838 41.08661 -8.805771c12.717407 0.48905945 29.348267 9.783463 35.217896 11.74015" fill-rule="evenodd"/><path fill="#666666" stroke="#666666" stroke-width="4.0" stroke-linecap="butt" d="m574.3749 93.37412l-5.857849 18.407784l16.319641 -10.335823z" fill-rule="evenodd"/><path fill="#000000" fill-opacity="0.0" d="m655.40155 84.93438l259.81104 0l0 78.4567l-259.81104 0z" fill-rule="evenodd"/><path fill="#666666" d="m702.6938 103.70273l3.171875 -15.21875l-5.640625 0l0.421875 -1.96875l13.515625 0l-0.40625 1.96875l-5.59375 0l-3.171875 15.21875l-2.296875 0zm10.003906 0l3.59375 -17.1875l2.109375 0l-1.359375 6.609375q1.171875 -1.15625 2.1875 -1.65625q1.03125 -0.5 2.109375 -0.5q1.546875 0 2.390625 0.828125q0.859375 0.8125 0.859375 2.140625q0 0.65625 -0.375 2.421875l-1.53125 7.34375l-2.125 0l1.59375 -7.53125q0.328125 -1.640625 0.328125 -2.0625q0 -0.609375 -0.421875 -1.0q-0.421875 -0.390625 -1.21875 -0.390625q-1.140625 0 -2.1875 0.609375q-1.046875 0.59375 -1.640625 1.65625q-0.578125 1.046875 -1.078125 3.375l-1.109375 5.34375l-2.125 0zm22.488281 -4.234375l2.0625 0.21875q-0.4375 1.53125 -2.046875 2.921875q-1.59375 1.375 -3.8125 1.375q-1.375 0 -2.53125 -0.640625q-1.15625 -0.640625 -1.765625 -1.859375q-0.59375 -1.21875 -0.59375 -2.78125q0 -2.03125 0.9375 -3.9375q0.9375 -1.921875 2.4375 -2.859375q1.5 -0.9375 3.25 -0.9375q2.234375 0 3.5625 1.390625q1.328125 1.375 1.328125 3.765625q0 0.921875 -0.171875 1.875l-9.15625 0q-0.046875 0.375 -0.046875 0.65625q0 1.75 0.796875 2.671875q0.8125 0.921875 1.96875 0.921875q1.09375 0 2.140625 -0.71875q1.0625 -0.71875 1.640625 -2.0625zm-6.15625 -3.078125l6.984375 0q0 -0.328125 0 -0.46875q0 -1.59375 -0.796875 -2.4375q-0.796875 -0.859375 -2.046875 -0.859375q-1.359375 0 -2.484375 0.9375q-1.109375 0.9375 -1.65625 2.828125zm15.984375 12.078125l3.609375 -17.21875l1.953125 0l-0.359375 1.734375q1.078125 -1.125 1.9375 -1.5625q0.875 -0.453125 1.828125 -0.453125q1.78125 0 2.953125 1.296875q1.171875 1.296875 1.171875 3.71875q0 1.9375 -0.640625 3.546875q-0.640625 1.59375 -1.578125 2.5625q-0.9375 0.96875 -1.90625 1.4375q-0.953125 0.453125 -1.96875 0.453125q-2.234375 0 -3.46875 -2.28125l-1.40625 6.765625l-2.125 0zm4.203125 -9.859375q0 1.40625 0.203125 1.9375q0.28125 0.765625 0.953125 1.234375q0.671875 0.46875 1.546875 0.46875q1.828125 0 2.953125 -2.046875q1.125 -2.0625 1.125 -4.21875q0 -1.578125 -0.765625 -2.4375q-0.75 -0.859375 -1.875 -0.859375q-0.796875 0 -1.5 0.4375q-0.6875 0.421875 -1.28125 1.265625q-0.59375 0.84375 -0.984375 2.078125q-0.375 1.234375 -0.375 2.140625zm18.582031 3.546875q-1.09375 0.953125 -2.125 1.390625q-1.015625 0.4375 -2.171875 0.4375q-1.71875 0 -2.78125 -1.015625q-1.046875 -1.015625 -1.046875 -2.59375q0 -1.046875 0.46875 -1.84375q0.46875 -0.8125 1.25 -1.296875q0.796875 -0.484375 1.9375 -0.6875q0.703125 -0.140625 2.703125 -0.21875q2.0 -0.09375 2.875 -0.4375q0.234375 -0.859375 0.234375 -1.4375q0 -0.734375 -0.53125 -1.15625q-0.734375 -0.59375 -2.15625 -0.59375q-1.34375 0 -2.1875 0.59375q-0.84375 0.59375 -1.234375 1.6875l-2.140625 -0.1875q0.65625 -1.859375 2.078125 -2.84375q1.421875 -0.984375 3.59375 -0.984375q2.296875 0 3.65625 1.109375q1.03125 0.8125 1.03125 2.125q0 1.0 -0.296875 2.3125l-0.6875 3.09375q-0.328125 1.484375 -0.328125 2.40625q0 0.578125 0.25 1.6875l-2.140625 0q-0.171875 -0.609375 -0.25 -1.546875zm0.78125 -4.765625q-0.4375 0.1875 -0.953125 0.28125q-0.5 0.09375 -1.703125 0.1875q-1.84375 0.171875 -2.609375 0.421875q-0.765625 0.25 -1.15625 0.8125q-0.375 0.546875 -0.375 1.203125q0 0.890625 0.609375 1.46875q0.609375 0.578125 1.75 0.578125q1.0625 0 2.03125 -0.546875q0.96875 -0.5625 1.53125 -1.5625q0.5625 -1.0 0.875 -2.84375zm4.1757812 6.3125l2.609375 -12.453125l1.875 0l-0.53125 2.546875q0.953125 -1.4375 1.875 -2.125q0.921875 -0.703125 1.890625 -0.703125q0.625 0 1.546875 0.46875l-0.859375 1.96875q-0.546875 -0.40625 -1.203125 -0.40625q-1.125 0 -2.296875 1.25q-1.171875 1.234375 -1.828125 4.453125l-1.0625 5.0l-2.015625 0zm17.132812 -4.234375l2.0625 0.21875q-0.4375 1.53125 -2.046875 2.921875q-1.59375 1.375 -3.8125 1.375q-1.375 0 -2.53125 -0.640625q-1.15625 -0.640625 -1.765625 -1.859375q-0.59375 -1.21875 -0.59375 -2.78125q0 -2.03125 0.9375 -3.9375q0.9375 -1.921875 2.4375 -2.859375q1.5 -0.9375 3.25 -0.9375q2.234375 0 3.5625 1.390625q1.328125 1.375 1.328125 3.765625q0 0.921875 -0.171875 1.875l-9.15625 0q-0.046875 0.375 -0.046875 0.65625q0 1.75 0.796875 2.671875q0.8125 0.921875 1.96875 0.921875q1.09375 0 2.140625 -0.71875q1.0625 -0.71875 1.640625 -2.0625zm-6.15625 -3.078125l6.984375 0q0 -0.328125 0 -0.46875q0 -1.59375 -0.796875 -2.4375q-0.796875 -0.859375 -2.046875 -0.859375q-1.359375 0 -2.484375 0.9375q-1.109375 0.9375 -1.65625 2.828125zm10.363281 7.3125l2.609375 -12.453125l1.921875 0l-0.46875 2.171875q1.265625 -1.28125 2.34375 -1.859375q1.09375 -0.59375 2.234375 -0.59375q1.515625 0 2.375 0.828125q0.859375 0.8125 0.859375 2.1875q0 0.6875 -0.3125 2.1875l-1.578125 7.53125l-2.125 0l1.65625 -7.890625q0.25 -1.140625 0.25 -1.703125q0 -0.609375 -0.4375 -1.0q-0.421875 -0.390625 -1.234375 -0.390625q-1.625 0 -2.90625 1.171875q-1.265625 1.171875 -1.859375 4.015625l-1.203125 5.796875l-2.125 0zm18.300781 -1.71875l-0.34375 1.734375q-0.765625 0.203125 -1.484375 0.203125q-1.265625 0 -2.015625 -0.625q-0.5625 -0.46875 -0.5625 -1.28125q0 -0.40625 0.3125 -1.890625l1.515625 -7.234375l-1.6875 0l0.34375 -1.640625l1.671875 0l0.65625 -3.046875l2.421875 -1.46875l-0.953125 4.515625l2.09375 0l-0.359375 1.640625l-2.078125 0l-1.4375 6.890625q-0.265625 1.3125 -0.265625 1.5625q0 0.375 0.21875 0.578125q0.21875 0.203125 0.703125 0.203125q0.703125 0 1.25 -0.140625zm8.3828125 1.71875l2.609375 -12.453125l1.921875 0l-0.46875 2.171875q1.265625 -1.28125 2.34375 -1.859375q1.09375 -0.59375 2.234375 -0.59375q1.515625 0 2.375 0.828125q0.859375 0.8125 0.859375 2.1875q0 0.6875 -0.3125 2.1875l-1.578125 7.53125l-2.125 0l1.65625 -7.890625q0.25 -1.140625 0.25 -1.703125q0 -0.609375 -0.4375 -1.0q-0.421875 -0.390625 -1.234375 -0.390625q-1.625 0 -2.90625 1.171875q-1.265625 1.171875 -1.859375 4.015625l-1.203125 5.796875l-2.125 0zm13.722656 -4.71875q0 -3.65625 2.140625 -6.046875q1.78125 -1.96875 4.640625 -1.96875q2.25 0 3.625 1.40625q1.390625 1.40625 1.390625 3.796875q0 2.15625 -0.875 4.0q-0.859375 1.84375 -2.46875 2.828125q-1.59375 0.984375 -3.359375 0.984375q-1.453125 0 -2.65625 -0.625q-1.1875 -0.625 -1.8125 -1.75q-0.625 -1.140625 -0.625 -2.625zm2.125 -0.21875q0 1.765625 0.84375 2.671875q0.84375 0.90625 2.140625 0.90625q0.6875 0 1.34375 -0.265625q0.671875 -0.28125 1.25 -0.84375q0.578125 -0.5625 0.96875 -1.28125q0.40625 -0.734375 0.65625 -1.5625q0.359375 -1.15625 0.359375 -2.21875q0 -1.6875 -0.84375 -2.625q-0.84375 -0.9375 -2.140625 -0.9375q-1.0 0 -1.828125 0.484375q-0.8125 0.46875 -1.46875 1.390625q-0.65625 0.90625 -0.96875 2.125q-0.3125 1.203125 -0.3125 2.15625zm19.238281 3.125q-1.8125 2.09375 -3.796875 2.09375q-1.765625 0 -2.953125 -1.296875q-1.171875 -1.3125 -1.171875 -3.796875q0 -2.28125 0.921875 -4.15625q0.9375 -1.890625 2.34375 -2.828125q1.40625 -0.9375 2.8125 -0.9375q2.3125 0 3.5 2.25l1.40625 -6.703125l2.109375 0l-3.59375 17.1875l-1.953125 0l0.375 -1.8125zm-5.8125 -3.40625q0 1.296875 0.25 2.046875q0.265625 0.75 0.890625 1.25q0.625 0.5 1.484375 0.5q1.4375 0 2.609375 -1.5q1.578125 -1.984375 1.578125 -4.921875q0 -1.46875 -0.78125 -2.296875q-0.765625 -0.84375 -1.9375 -0.84375q-0.765625 0 -1.390625 0.34375q-0.625 0.34375 -1.25 1.15625q-0.609375 0.8125 -1.03125 2.0625q-0.421875 1.25 -0.421875 2.203125zm19.910156 0.984375l2.0625 0.21875q-0.4375 1.53125 -2.046875 2.921875q-1.59375 1.375 -3.8125 1.375q-1.375 0 -2.53125 -0.640625q-1.15625 -0.640625 -1.765625 -1.859375q-0.59375 -1.21875 -0.59375 -2.78125q0 -2.03125 0.9375 -3.9375q0.9375 -1.921875 2.4375 -2.859375q1.5 -0.9375 3.25 -0.9375q2.234375 0 3.5625 1.390625q1.328125 1.375 1.328125 3.765625q0 0.921875 -0.171875 1.875l-9.15625 0q-0.046875 0.375 -0.046875 0.65625q0 1.75 0.796875 2.671875q0.8125 0.921875 1.96875 0.921875q1.09375 0 2.140625 -0.71875q1.0625 -0.71875 1.640625 -2.0625zm-6.15625 -3.078125l6.984375 0q0 -0.328125 0 -0.46875q0 -1.59375 -0.796875 -2.4375q-0.796875 -0.859375 -2.046875 -0.859375q-1.359375 0 -2.484375 0.9375q-1.109375 0.9375 -1.65625 2.828125z" fill-rule="nonzero"/><path fill="#666666" d="m686.6391 128.17148l2.125 0.21875q-0.796875 2.328125 -2.28125 3.46875q-1.46875 1.125 -3.34375 1.125q-2.015625 0 -3.28125 -1.3125q-1.265625 -1.3125 -1.265625 -3.671875q0 -2.03125 0.8125 -4.0q0.8125 -1.96875 2.3125 -3.0q1.515625 -1.03125 3.4375 -1.03125q2.015625 0 3.1875 1.140625q1.171875 1.125 1.171875 2.984375l-2.09375 0.140625q-0.015625 -1.171875 -0.6875 -1.84375q-0.671875 -0.671875 -1.765625 -0.671875q-1.28125 0 -2.21875 0.8125q-0.9375 0.8125 -1.46875 2.453125q-0.53125 1.640625 -0.53125 3.171875q0 1.59375 0.703125 2.390625q0.703125 0.796875 1.734375 0.796875q1.03125 0 1.96875 -0.78125q0.9375 -0.796875 1.484375 -2.390625zm3.40625 4.53125l3.59375 -17.1875l2.109375 0l-1.359375 6.609375q1.171875 -1.15625 2.1875 -1.65625q1.03125 -0.5 2.109375 -0.5q1.546875 0 2.390625 0.828125q0.859375 0.8125 0.859375 2.140625q0 0.65625 -0.375 2.421875l-1.53125 7.34375l-2.125 0l1.59375 -7.53125q0.328125 -1.640625 0.328125 -2.0625q0 -0.609375 -0.421875 -1.0q-0.421875 -0.390625 -1.21875 -0.390625q-1.140625 0 -2.1875 0.609375q-1.046875 0.59375 -1.640625 1.65625q-0.578125 1.046875 -1.078125 3.375l-1.109375 5.34375l-2.125 0zm21.738281 -1.546875q-1.09375 0.953125 -2.125 1.390625q-1.015625 0.4375 -2.171875 0.4375q-1.71875 0 -2.78125 -1.015625q-1.046875 -1.015625 -1.046875 -2.59375q0 -1.046875 0.46875 -1.84375q0.46875 -0.8125 1.25 -1.296875q0.796875 -0.484375 1.9375 -0.6875q0.703125 -0.140625 2.703125 -0.21875q2.0 -0.09375 2.875 -0.4375q0.234375 -0.859375 0.234375 -1.4375q0 -0.734375 -0.53125 -1.15625q-0.734375 -0.59375 -2.15625 -0.59375q-1.34375 0 -2.1875 0.59375q-0.84375 0.59375 -1.234375 1.6875l-2.140625 -0.1875q0.65625 -1.859375 2.078125 -2.84375q1.421875 -0.984375 3.59375 -0.984375q2.296875 0 3.65625 1.109375q1.03125 0.8125 1.03125 2.125q0 1.0 -0.296875 2.3125l-0.6875 3.09375q-0.328125 1.484375 -0.328125 2.40625q0 0.578125 0.25 1.6875l-2.140625 0q-0.171875 -0.609375 -0.25 -1.546875zm0.78125 -4.765625q-0.4375 0.1875 -0.953125 0.28125q-0.5 0.09375 -1.703125 0.1875q-1.84375 0.171875 -2.609375 0.421875q-0.765625 0.25 -1.15625 0.8125q-0.375 0.546875 -0.375 1.203125q0 0.890625 0.609375 1.46875q0.609375 0.578125 1.75 0.578125q1.0625 0 2.03125 -0.546875q0.96875 -0.5625 1.53125 -1.5625q0.5625 -1.0 0.875 -2.84375zm4.1757812 6.3125l2.609375 -12.453125l1.921875 0l-0.46875 2.171875q1.265625 -1.28125 2.34375 -1.859375q1.09375 -0.59375 2.234375 -0.59375q1.515625 0 2.375 0.828125q0.859375 0.8125 0.859375 2.1875q0 0.6875 -0.3125 2.1875l-1.578125 7.53125l-2.125 0l1.65625 -7.890625q0.25 -1.140625 0.25 -1.703125q0 -0.609375 -0.4375 -1.0q-0.421875 -0.390625 -1.234375 -0.390625q-1.625 0 -2.90625 1.171875q-1.265625 1.171875 -1.859375 4.015625l-1.203125 5.796875l-2.125 0zm13.238281 1.125l2.140625 0.203125q-0.03125 0.71875 0.171875 1.078125q0.203125 0.375 0.640625 0.578125q0.5625 0.25 1.484375 0.25q1.921875 0 2.765625 -1.0q0.546875 -0.65625 1.015625 -2.90625l0.21875 -1.0q-1.65625 1.671875 -3.515625 1.671875q-1.890625 0 -3.171875 -1.390625q-1.265625 -1.390625 -1.265625 -3.9375q0 -2.09375 1.0 -3.84375q1.0 -1.765625 2.375 -2.65625q1.390625 -0.90625 2.859375 -0.90625q2.453125 0 3.78125 2.328125l0.421875 -2.046875l1.9375 0l-2.5 12.015625q-0.421875 1.984375 -1.09375 3.09375q-0.65625 1.109375 -1.84375 1.71875q-1.1875 0.609375 -2.75 0.609375q-1.5 0 -2.59375 -0.390625q-1.078125 -0.390625 -1.609375 -1.140625q-0.53125 -0.734375 -0.53125 -1.6875q0 -0.296875 0.0625 -0.640625zm2.640625 -6.640625q0 1.28125 0.25 1.921875q0.34375 0.90625 1.0 1.390625q0.65625 0.46875 1.453125 0.46875q1.03125 0 2.0625 -0.734375q1.03125 -0.734375 1.671875 -2.265625q0.640625 -1.53125 0.640625 -2.9375q0 -1.53125 -0.859375 -2.4375q-0.84375 -0.90625 -2.09375 -0.90625q-0.765625 0 -1.5 0.421875q-0.71875 0.40625 -1.359375 1.265625q-0.625 0.84375 -0.953125 2.03125q-0.3125 1.171875 -0.3125 1.78125zm19.957031 1.28125l2.0625 0.21875q-0.4375 1.53125 -2.046875 2.921875q-1.59375 1.375 -3.8125 1.375q-1.375 0 -2.53125 -0.640625q-1.15625 -0.640625 -1.765625 -1.859375q-0.59375 -1.21875 -0.59375 -2.78125q0 -2.03125 0.9375 -3.9375q0.9375 -1.921875 2.4375 -2.859375q1.5 -0.9375 3.25 -0.9375q2.234375 0 3.5625 1.390625q1.328125 1.375 1.328125 3.765625q0 0.921875 -0.171875 1.875l-9.15625 0q-0.046875 0.375 -0.046875 0.65625q0 1.75 0.796875 2.671875q0.8125 0.921875 1.96875 0.921875q1.09375 0 2.140625 -0.71875q1.0625 -0.71875 1.640625 -2.0625zm-6.15625 -3.078125l6.984375 0q0 -0.328125 0 -0.46875q0 -1.59375 -0.796875 -2.4375q-0.796875 -0.859375 -2.046875 -0.859375q-1.359375 0 -2.484375 0.9375q-1.109375 0.9375 -1.65625 2.828125zm26.171875 3.078125l2.0625 0.21875q-0.4375 1.53125 -2.046875 2.921875q-1.59375 1.375 -3.8125 1.375q-1.375 0 -2.53125 -0.640625q-1.15625 -0.640625 -1.765625 -1.859375q-0.59375 -1.21875 -0.59375 -2.78125q0 -2.03125 0.9375 -3.9375q0.9375 -1.921875 2.4375 -2.859375q1.5 -0.9375 3.25 -0.9375q2.234375 0 3.5625 1.390625q1.328125 1.375 1.328125 3.765625q0 0.921875 -0.171875 1.875l-9.15625 0q-0.046875 0.375 -0.046875 0.65625q0 1.75 0.796875 2.671875q0.8125 0.921875 1.96875 0.921875q1.09375 0 2.140625 -0.71875q1.0625 -0.71875 1.640625 -2.0625zm-6.15625 -3.078125l6.984375 0q0 -0.328125 0 -0.46875q0 -1.59375 -0.796875 -2.4375q-0.796875 -0.859375 -2.046875 -0.859375q-1.359375 0 -2.484375 0.9375q-1.109375 0.9375 -1.65625 2.828125zm13.503906 7.3125l-2.03125 -12.453125l2.0625 0l1.0625 6.859375q0.171875 1.125 0.4375 3.671875q0.609375 -1.328125 1.546875 -3.03125l4.171875 -7.5l2.234375 0l-7.125 12.453125l-2.359375 0zm18.0 -4.234375l2.0625 0.21875q-0.4375 1.53125 -2.046875 2.921875q-1.59375 1.375 -3.8125 1.375q-1.375 0 -2.53125 -0.640625q-1.15625 -0.640625 -1.765625 -1.859375q-0.59375 -1.21875 -0.59375 -2.78125q0 -2.03125 0.9375 -3.9375q0.9375 -1.921875 2.4375 -2.859375q1.5 -0.9375 3.25 -0.9375q2.234375 0 3.5625 1.390625q1.328125 1.375 1.328125 3.765625q0 0.921875 -0.171875 1.875l-9.15625 0q-0.046875 0.375 -0.046875 0.65625q0 1.75 0.796875 2.671875q0.8125 0.921875 1.96875 0.921875q1.09375 0 2.140625 -0.71875q1.0625 -0.71875 1.640625 -2.0625zm-6.15625 -3.078125l6.984375 0q0 -0.328125 0 -0.46875q0 -1.59375 -0.796875 -2.4375q-0.796875 -0.859375 -2.046875 -0.859375q-1.359375 0 -2.484375 0.9375q-1.109375 0.9375 -1.65625 2.828125zm10.363281 7.3125l2.609375 -12.453125l1.875 0l-0.53125 2.546875q0.953125 -1.4375 1.875 -2.125q0.921875 -0.703125 1.890625 -0.703125q0.625 0 1.546875 0.46875l-0.859375 1.96875q-0.546875 -0.40625 -1.203125 -0.40625q-1.125 0 -2.296875 1.25q-1.171875 1.234375 -1.828125 4.453125l-1.0625 5.0l-2.015625 0zm7.1953125 4.8125l0.125 -2.0q0.65625 0.1875 1.28125 0.1875q0.640625 0 1.046875 -0.296875q0.515625 -0.375 1.125 -1.453125l0.671875 -1.21875l-2.0625 -12.484375l2.078125 0l0.9375 6.296875q0.28125 1.859375 0.484375 3.734375l5.5625 -10.03125l2.21875 0l-7.9375 14.109375q-1.140625 2.0625 -2.03125 2.71875q-0.890625 0.671875 -2.0625 0.671875q-0.734375 0 -1.4375 -0.234375zm24.417969 -6.53125l-0.34375 1.734375q-0.765625 0.203125 -1.484375 0.203125q-1.265625 0 -2.015625 -0.625q-0.5625 -0.46875 -0.5625 -1.28125q0 -0.40625 0.3125 -1.890625l1.515625 -7.234375l-1.6875 0l0.34375 -1.640625l1.671875 0l0.65625 -3.046875l2.421875 -1.46875l-0.953125 4.515625l2.09375 0l-0.359375 1.640625l-2.078125 0l-1.4375 6.890625q-0.265625 1.3125 -0.265625 1.5625q0 0.375 0.21875 0.578125q0.21875 0.203125 0.703125 0.203125q0.703125 0 1.25 -0.140625zm4.7304688 -13.0625l0.5 -2.40625l2.109375 0l-0.5 2.40625l-2.109375 0zm-3.09375 14.78125l2.59375 -12.453125l2.125 0l-2.59375 12.453125l-2.125 0zm5.3945312 0l2.609375 -12.453125l2.125 0l-0.4375 2.0625q1.1875 -1.328125 2.109375 -1.828125q0.9375 -0.515625 2.03125 -0.515625q1.15625 0 1.9375 0.625q0.78125 0.609375 1.015625 1.71875q0.953125 -1.171875 2.0 -1.75q1.046875 -0.59375 2.21875 -0.59375q1.546875 0 2.328125 0.75q0.78125 0.734375 0.78125 2.0625q0 0.578125 -0.265625 1.90625l-1.671875 8.015625l-2.125 0l1.703125 -8.234375q0.234375 -1.0 0.234375 -1.4375q0 -0.609375 -0.390625 -0.953125q-0.390625 -0.359375 -1.09375 -0.359375q-0.953125 0 -1.9375 0.578125q-0.984375 0.578125 -1.53125 1.515625q-0.53125 0.921875 -0.953125 2.859375l-1.265625 6.03125l-2.109375 0l1.75 -8.40625q0.1875 -0.859375 0.1875 -1.21875q0 -0.609375 -0.390625 -0.984375q-0.375 -0.375 -0.984375 -0.375q-0.890625 0 -1.890625 0.578125q-0.984375 0.578125 -1.609375 1.609375q-0.625 1.015625 -1.015625 2.90625l-1.234375 5.890625l-2.125 0zm29.148438 -4.234375l2.0625 0.21875q-0.4375 1.53125 -2.046875 2.921875q-1.59375 1.375 -3.8125 1.375q-1.375 0 -2.53125 -0.640625q-1.15625 -0.640625 -1.765625 -1.859375q-0.59375 -1.21875 -0.59375 -2.78125q0 -2.03125 0.9375 -3.9375q0.9375 -1.921875 2.4375 -2.859375q1.5 -0.9375 3.25 -0.9375q2.234375 0 3.5625 1.390625q1.328125 1.375 1.328125 3.765625q0 0.921875 -0.171875 1.875l-9.15625 0q-0.046875 0.375 -0.046875 0.65625q0 1.75 0.796875 2.671875q0.8125 0.921875 1.96875 0.921875q1.09375 0 2.140625 -0.71875q1.0625 -0.71875 1.640625 -2.0625zm-6.15625 -3.078125l6.984375 0q0 -0.328125 0 -0.46875q0 -1.59375 -0.796875 -2.4375q-0.796875 -0.859375 -2.046875 -0.859375q-1.359375 0 -2.484375 0.9375q-1.109375 0.9375 -1.65625 2.828125zm25.421875 5.765625q-1.09375 0.953125 -2.125 1.390625q-1.015625 0.4375 -2.171875 0.4375q-1.71875 0 -2.78125 -1.015625q-1.046875 -1.015625 -1.046875 -2.59375q0 -1.046875 0.46875 -1.84375q0.46875 -0.8125 1.25 -1.296875q0.796875 -0.484375 1.9375 -0.6875q0.703125 -0.140625 2.703125 -0.21875q2.0 -0.09375 2.875 -0.4375q0.234375 -0.859375 0.234375 -1.4375q0 -0.734375 -0.53125 -1.15625q-0.734375 -0.59375 -2.15625 -0.59375q-1.34375 0 -2.1875 0.59375q-0.84375 0.59375 -1.234375 1.6875l-2.140625 -0.1875q0.65625 -1.859375 2.078125 -2.84375q1.421875 -0.984375 3.59375 -0.984375q2.296875 0 3.65625 1.109375q1.03125 0.8125 1.03125 2.125q0 1.0 -0.296875 2.3125l-0.6875 3.09375q-0.328125 1.484375 -0.328125 2.40625q0 0.578125 0.25 1.6875l-2.140625 0q-0.171875 -0.609375 -0.25 -1.546875zm0.78125 -4.765625q-0.4375 0.1875 -0.953125 0.28125q-0.5 0.09375 -1.703125 0.1875q-1.84375 0.171875 -2.609375 0.421875q-0.765625 0.25 -1.15625 0.8125q-0.375 0.546875 -0.375 1.203125q0 0.890625 0.609375 1.46875q0.609375 0.578125 1.75 0.578125q1.0625 0 2.03125 -0.546875q0.96875 -0.5625 1.53125 -1.5625q0.5625 -1.0 0.875 -2.84375z" fill-rule="nonzero"/><path fill="#666666" d="m679.3754 161.70273l2.609375 -12.453125l1.921875 0l-0.46875 2.171875q1.265625 -1.28125 2.34375 -1.859375q1.09375 -0.59375 2.234375 -0.59375q1.515625 0 2.375 0.828125q0.859375 0.8125 0.859375 2.1875q0 0.6875 -0.3125 2.1875l-1.578125 7.53125l-2.125 0l1.65625 -7.890625q0.25 -1.140625 0.25 -1.703125q0 -0.609375 -0.4375 -1.0q-0.421875 -0.390625 -1.234375 -0.390625q-1.625 0 -2.90625 1.171875q-1.265625 1.171875 -1.859375 4.015625l-1.203125 5.796875l-2.125 0zm22.488281 -4.234375l2.0625 0.21875q-0.4375 1.53125 -2.046875 2.921875q-1.59375 1.375 -3.8125 1.375q-1.375 0 -2.53125 -0.640625q-1.15625 -0.640625 -1.765625 -1.859375q-0.59375 -1.21875 -0.59375 -2.78125q0 -2.03125 0.9375 -3.9375q0.9375 -1.921875 2.4375 -2.859375q1.5 -0.9375 3.25 -0.9375q2.234375 0 3.5625 1.390625q1.328125 1.375 1.328125 3.765625q0 0.921875 -0.171875 1.875l-9.15625 0q-0.046875 0.375 -0.046875 0.65625q0 1.75 0.796875 2.671875q0.8125 0.921875 1.96875 0.921875q1.09375 0 2.140625 -0.71875q1.0625 -0.71875 1.640625 -2.0625zm-6.15625 -3.078125l6.984375 0q0 -0.328125 0 -0.46875q0 -1.59375 -0.796875 -2.4375q-0.796875 -0.859375 -2.046875 -0.859375q-1.359375 0 -2.484375 0.9375q-1.109375 0.9375 -1.65625 2.828125zm12.738281 7.3125l-1.3125 -12.453125l2.046875 0l0.5625 5.59375l0.21875 3.140625q0.03125 0.359375 0.078125 1.421875q0.34375 -1.203125 0.59375 -1.828125q0.25 -0.640625 0.78125 -1.828125l2.96875 -6.5l2.3125 0l0.40625 6.234375q0.09375 1.40625 0.109375 3.78125q0.59375 -1.578125 1.921875 -4.359375l2.671875 -5.65625l2.109375 0l-6.078125 12.453125l-2.203125 0l-0.46875 -7.296875q-0.046875 -0.6875 -0.0625 -2.65625q-0.484375 1.25 -1.140625 2.703125l-3.296875 7.25l-2.21875 0zm30.015625 -1.8125q-1.8125 2.09375 -3.796875 2.09375q-1.765625 0 -2.953125 -1.296875q-1.171875 -1.3125 -1.171875 -3.796875q0 -2.28125 0.921875 -4.15625q0.9375 -1.890625 2.34375 -2.828125q1.40625 -0.9375 2.8125 -0.9375q2.3125 0 3.5 2.25l1.40625 -6.703125l2.109375 0l-3.59375 17.1875l-1.953125 0l0.375 -1.8125zm-5.8125 -3.40625q0 1.296875 0.25 2.046875q0.265625 0.75 0.890625 1.25q0.625 0.5 1.484375 0.5q1.4375 0 2.609375 -1.5q1.578125 -1.984375 1.578125 -4.921875q0 -1.46875 -0.78125 -2.296875q-0.765625 -0.84375 -1.9375 -0.84375q-0.765625 0 -1.390625 0.34375q-0.625 0.34375 -1.25 1.15625q-0.609375 0.8125 -1.03125 2.0625q-0.421875 1.25 -0.421875 2.203125zm19.160156 3.671875q-1.09375 0.953125 -2.125 1.390625q-1.015625 0.4375 -2.171875 0.4375q-1.71875 0 -2.78125 -1.015625q-1.046875 -1.015625 -1.046875 -2.59375q0 -1.046875 0.46875 -1.84375q0.46875 -0.8125 1.25 -1.296875q0.796875 -0.484375 1.9375 -0.6875q0.703125 -0.140625 2.703125 -0.21875q2.0 -0.09375 2.875 -0.4375q0.234375 -0.859375 0.234375 -1.4375q0 -0.734375 -0.53125 -1.15625q-0.734375 -0.59375 -2.15625 -0.59375q-1.34375 0 -2.1875 0.59375q-0.84375 0.59375 -1.234375 1.6875l-2.140625 -0.1875q0.65625 -1.859375 2.078125 -2.84375q1.421875 -0.984375 3.59375 -0.984375q2.296875 0 3.65625 1.109375q1.03125 0.8125 1.03125 2.125q0 1.0 -0.296875 2.3125l-0.6875 3.09375q-0.328125 1.484375 -0.328125 2.40625q0 0.578125 0.25 1.6875l-2.140625 0q-0.171875 -0.609375 -0.25 -1.546875zm0.78125 -4.765625q-0.4375 0.1875 -0.953125 0.28125q-0.5 0.09375 -1.703125 0.1875q-1.84375 0.171875 -2.609375 0.421875q-0.765625 0.25 -1.15625 0.8125q-0.375 0.546875 -0.375 1.203125q0 0.890625 0.609375 1.46875q0.609375 0.578125 1.75 0.578125q1.0625 0 2.03125 -0.546875q0.96875 -0.5625 1.53125 -1.5625q0.5625 -1.0 0.875 -2.84375zm9.128906 4.59375l-0.34375 1.734375q-0.765625 0.203125 -1.484375 0.203125q-1.265625 0 -2.015625 -0.625q-0.5625 -0.46875 -0.5625 -1.28125q0 -0.40625 0.3125 -1.890625l1.515625 -7.234375l-1.6875 0l0.34375 -1.640625l1.671875 0l0.65625 -3.046875l2.421875 -1.46875l-0.953125 4.515625l2.09375 0l-0.359375 1.640625l-2.078125 0l-1.4375 6.890625q-0.265625 1.3125 -0.265625 1.5625q0 0.375 0.21875 0.578125q0.21875 0.203125 0.703125 0.203125q0.703125 0 1.25 -0.140625zm10.105469 0.171875q-1.09375 0.953125 -2.125 1.390625q-1.015625 0.4375 -2.171875 0.4375q-1.71875 0 -2.78125 -1.015625q-1.046875 -1.015625 -1.046875 -2.59375q0 -1.046875 0.46875 -1.84375q0.46875 -0.8125 1.25 -1.296875q0.796875 -0.484375 1.9375 -0.6875q0.703125 -0.140625 2.703125 -0.21875q2.0 -0.09375 2.875 -0.4375q0.234375 -0.859375 0.234375 -1.4375q0 -0.734375 -0.53125 -1.15625q-0.734375 -0.59375 -2.15625 -0.59375q-1.34375 0 -2.1875 0.59375q-0.84375 0.59375 -1.234375 1.6875l-2.140625 -0.1875q0.65625 -1.859375 2.078125 -2.84375q1.421875 -0.984375 3.59375 -0.984375q2.296875 0 3.65625 1.109375q1.03125 0.8125 1.03125 2.125q0 1.0 -0.296875 2.3125l-0.6875 3.09375q-0.328125 1.484375 -0.328125 2.40625q0 0.578125 0.25 1.6875l-2.140625 0q-0.171875 -0.609375 -0.25 -1.546875zm0.78125 -4.765625q-0.4375 0.1875 -0.953125 0.28125q-0.5 0.09375 -1.703125 0.1875q-1.84375 0.171875 -2.609375 0.421875q-0.765625 0.25 -1.15625 0.8125q-0.375 0.546875 -0.375 1.203125q0 0.890625 0.609375 1.46875q0.609375 0.578125 1.75 0.578125q1.0625 0 2.03125 -0.546875q0.96875 -0.5625 1.53125 -1.5625q0.5625 -1.0 0.875 -2.84375zm13.859375 -8.46875l0.5 -2.40625l2.109375 0l-0.5 2.40625l-2.109375 0zm-3.09375 14.78125l2.59375 -12.453125l2.125 0l-2.59375 12.453125l-2.125 0zm5.6132812 -4.25l2.125 -0.140625q0 0.921875 0.28125 1.5625q0.28125 0.640625 1.03125 1.0625q0.75 0.40625 1.765625 0.40625q1.40625 0 2.109375 -0.5625q0.703125 -0.5625 0.703125 -1.328125q0 -0.546875 -0.421875 -1.046875q-0.4375 -0.484375 -2.125 -1.203125q-1.671875 -0.71875 -2.140625 -1.015625q-0.78125 -0.484375 -1.1875 -1.125q-0.390625 -0.65625 -0.390625 -1.5q0 -1.484375 1.171875 -2.53125q1.171875 -1.0625 3.28125 -1.0625q2.34375 0 3.5625 1.09375q1.21875 1.078125 1.265625 2.84375l-2.0625 0.140625q-0.046875 -1.125 -0.796875 -1.78125q-0.75 -0.65625 -2.125 -0.65625q-1.109375 0 -1.71875 0.515625q-0.609375 0.5 -0.609375 1.078125q0 0.59375 0.53125 1.03125q0.359375 0.3125 1.8125 0.9375q2.4375 1.0625 3.078125 1.671875q1.0 0.96875 1.0 2.359375q0 0.9375 -0.5625 1.828125q-0.5625 0.890625 -1.734375 1.421875q-1.171875 0.53125 -2.75 0.53125q-2.15625 0 -3.671875 -1.0625q-1.5 -1.078125 -1.421875 -3.46875zm21.480469 -10.53125l0.5 -2.40625l2.109375 0l-0.5 2.40625l-2.109375 0zm-3.09375 14.78125l2.59375 -12.453125l2.125 0l-2.59375 12.453125l-2.125 0zm5.4101562 0l2.609375 -12.453125l1.921875 0l-0.46875 2.171875q1.265625 -1.28125 2.34375 -1.859375q1.09375 -0.59375 2.234375 -0.59375q1.515625 0 2.375 0.828125q0.859375 0.8125 0.859375 2.1875q0 0.6875 -0.3125 2.1875l-1.578125 7.53125l-2.125 0l1.65625 -7.890625q0.25 -1.140625 0.25 -1.703125q0 -0.609375 -0.4375 -1.0q-0.421875 -0.390625 -1.234375 -0.390625q-1.625 0 -2.90625 1.171875q-1.265625 1.171875 -1.859375 4.015625l-1.203125 5.796875l-2.125 0zm13.550781 -4.25l2.125 -0.140625q0 0.921875 0.28125 1.5625q0.28125 0.640625 1.03125 1.0625q0.75 0.40625 1.765625 0.40625q1.40625 0 2.109375 -0.5625q0.703125 -0.5625 0.703125 -1.328125q0 -0.546875 -0.421875 -1.046875q-0.4375 -0.484375 -2.125 -1.203125q-1.671875 -0.71875 -2.140625 -1.015625q-0.78125 -0.484375 -1.1875 -1.125q-0.390625 -0.65625 -0.390625 -1.5q0 -1.484375 1.171875 -2.53125q1.171875 -1.0625 3.28125 -1.0625q2.34375 0 3.5625 1.09375q1.21875 1.078125 1.265625 2.84375l-2.0625 0.140625q-0.046875 -1.125 -0.796875 -1.78125q-0.75 -0.65625 -2.125 -0.65625q-1.109375 0 -1.71875 0.515625q-0.609375 0.5 -0.609375 1.078125q0 0.59375 0.53125 1.03125q0.359375 0.3125 1.8125 0.9375q2.4375 1.0625 3.078125 1.671875q1.0 0.96875 1.0 2.359375q0 0.9375 -0.5625 1.828125q-0.5625 0.890625 -1.734375 1.421875q-1.171875 0.53125 -2.75 0.53125q-2.15625 0 -3.671875 -1.0625q-1.5 -1.078125 -1.421875 -3.46875zm20.9375 0.015625l2.0625 0.21875q-0.4375 1.53125 -2.046875 2.921875q-1.59375 1.375 -3.8125 1.375q-1.375 0 -2.53125 -0.640625q-1.15625 -0.640625 -1.765625 -1.859375q-0.59375 -1.21875 -0.59375 -2.78125q0 -2.03125 0.9375 -3.9375q0.9375 -1.921875 2.4375 -2.859375q1.5 -0.9375 3.25 -0.9375q2.234375 0 3.5625 1.390625q1.328125 1.375 1.328125 3.765625q0 0.921875 -0.171875 1.875l-9.15625 0q-0.046875 0.375 -0.046875 0.65625q0 1.75 0.796875 2.671875q0.8125 0.921875 1.96875 0.921875q1.09375 0 2.140625 -0.71875q1.0625 -0.71875 1.640625 -2.0625zm-6.15625 -3.078125l6.984375 0q0 -0.328125 0 -0.46875q0 -1.59375 -0.796875 -2.4375q-0.796875 -0.859375 -2.046875 -0.859375q-1.359375 0 -2.484375 0.9375q-1.109375 0.9375 -1.65625 2.828125zm10.363281 7.3125l2.609375 -12.453125l1.875 0l-0.53125 2.546875q0.953125 -1.4375 1.875 -2.125q0.921875 -0.703125 1.890625 -0.703125q0.625 0 1.546875 0.46875l-0.859375 1.96875q-0.546875 -0.40625 -1.203125 -0.40625q-1.125 0 -2.296875 1.25q-1.171875 1.234375 -1.828125 4.453125l-1.0625 5.0l-2.015625 0zm12.9453125 -1.71875l-0.34375 1.734375q-0.765625 0.203125 -1.484375 0.203125q-1.265625 0 -2.015625 -0.625q-0.5625 -0.46875 -0.5625 -1.28125q0 -0.40625 0.3125 -1.890625l1.515625 -7.234375l-1.6875 0l0.34375 -1.640625l1.671875 0l0.65625 -3.046875l2.421875 -1.46875l-0.953125 4.515625l2.09375 0l-0.359375 1.640625l-2.078125 0l-1.4375 6.890625q-0.265625 1.3125 -0.265625 1.5625q0 0.375 0.21875 0.578125q0.21875 0.203125 0.703125 0.203125q0.703125 0 1.25 -0.140625zm10.855469 -2.515625l2.0625 0.21875q-0.4375 1.53125 -2.046875 2.921875q-1.59375 1.375 -3.8125 1.375q-1.375 0 -2.53125 -0.640625q-1.15625 -0.640625 -1.765625 -1.859375q-0.59375 -1.21875 -0.59375 -2.78125q0 -2.03125 0.9375 -3.9375q0.9375 -1.921875 2.4375 -2.859375q1.5 -0.9375 3.25 -0.9375q2.234375 0 3.5625 1.390625q1.328125 1.375 1.328125 3.765625q0 0.921875 -0.171875 1.875l-9.15625 0q-0.046875 0.375 -0.046875 0.65625q0 1.75 0.796875 2.671875q0.8125 0.921875 1.96875 0.921875q1.09375 0 2.140625 -0.71875q1.0625 -0.71875 1.640625 -2.0625zm-6.15625 -3.078125l6.984375 0q0 -0.328125 0 -0.46875q0 -1.59375 -0.796875 -2.4375q-0.796875 -0.859375 -2.046875 -0.859375q-1.359375 0 -2.484375 0.9375q-1.109375 0.9375 -1.65625 2.828125zm18.753906 5.5q-1.8125 2.09375 -3.796875 2.09375q-1.765625 0 -2.953125 -1.296875q-1.171875 -1.3125 -1.171875 -3.796875q0 -2.28125 0.921875 -4.15625q0.9375 -1.890625 2.34375 -2.828125q1.40625 -0.9375 2.8125 -0.9375q2.3125 0 3.5 2.25l1.40625 -6.703125l2.109375 0l-3.59375 17.1875l-1.953125 0l0.375 -1.8125zm-5.8125 -3.40625q0 1.296875 0.25 2.046875q0.265625 0.75 0.890625 1.25q0.625 0.5 1.484375 0.5q1.4375 0 2.609375 -1.5q1.578125 -1.984375 1.578125 -4.921875q0 -1.46875 -0.78125 -2.296875q-0.765625 -0.84375 -1.9375 -0.84375q-0.765625 0 -1.390625 0.34375q-0.625 0.34375 -1.25 1.15625q-0.609375 0.8125 -1.03125 2.0625q-0.421875 1.25 -0.421875 2.203125z" fill-rule="nonzero"/><path fill="#fce5cd" d="m354.3039 401.94217l38.409454 0l0 33.212585l-38.409454 0z" fill-rule="evenodd"/><path fill="#c9b7a3" d="m392.71335 401.94217l11.070862 -11.070862l0 33.212585l-11.070862 11.070862z" fill-rule="evenodd"/><path fill="#fcead7" d="m354.3039 401.94217l11.070862 -11.070862l38.409454 0l-11.070862 11.070862z" fill-rule="evenodd"/><path fill="#000000" fill-opacity="0.0" d="m354.3039 401.94217l11.070862 -11.070862l38.409454 0l0 33.212585l-11.070862 11.070862l-38.409454 0zm0 0l38.409454 0l11.070862 -11.070862m-11.070862 11.070862l0 33.212585" fill-rule="evenodd"/><path stroke="#607d8b" stroke-width="3.0" stroke-linejoin="round" stroke-linecap="butt" d="m354.3039 401.94217l11.070862 -11.070862l38.409454 0l0 33.212585l-11.070862 11.070862l-38.409454 0zm0 0l38.409454 0l11.070862 -11.070862m-11.070862 11.070862l0 33.212585" fill-rule="evenodd"/><path fill="#fce5cd" d="m555.1963 401.94217l38.409424 0l0 33.212585l-38.409424 0z" fill-rule="evenodd"/><path fill="#c9b7a3" d="m593.6057 401.94217l11.070923 -11.070862l0 33.212585l-11.070923 11.070862z" fill-rule="evenodd"/><path fill="#fcead7" d="m555.1963 401.94217l11.070862 -11.070862l38.409485 0l-11.070923 11.070862z" fill-rule="evenodd"/><path fill="#000000" fill-opacity="0.0" d="m555.1963 401.94217l11.070862 -11.070862l38.409485 0l0 33.212585l-11.070923 11.070862l-38.409424 0zm0 0l38.409424 0l11.070923 -11.070862m-11.070923 11.070862l0 33.212585" fill-rule="evenodd"/><path stroke="#607d8b" stroke-width="3.0" stroke-linejoin="round" stroke-linecap="butt" d="m555.1963 401.94217l11.070862 -11.070862l38.409485 0l0 33.212585l-11.070923 11.070862l-38.409424 0zm0 0l38.409424 0l11.070923 -11.070862m-11.070923 11.070862l0 33.212585" fill-rule="evenodd"/></g></svg>